<?xml version="1.0" standalone="no"?>
<!DOCTYPE svg PUBLIC "-//W3C//DTD SVG 20010904//EN"
 "http://www.w3.org/TR/2001/REC-SVG-20010904/DTD/svg10.dtd">
<svg version="1.0" xmlns="http://www.w3.org/2000/svg"
 width="700.000000pt" height="700.000000pt" viewBox="0 0 700.000000 700.000000"
 preserveAspectRatio="xMidYMid meet">
<metadata>
Created by potrace 1.11, written by Peter Selinger 2001-2013
</metadata>
<g transform="translate(0.000000,700.000000) scale(0.100000,-0.100000)"
fill="#000000" stroke="none">
<path d="M3310 6989 c-1242 -63 -2357 -795 -2922 -1916 -175 -348 -294 -743
-345 -1148 -21 -174 -24 -615 -5 -780 53 -445 165 -823 356 -1202 377 -750
1033 -1352 1814 -1662 1065 -423 2265 -299 3217 334 414 275 759 632 1038
1073 86 135 231 430 291 589 378 1006 277 2122 -274 3033 -390 645 -971 1142
-1668 1429 -464 191 -982 277 -1502 250z m212 -165 l38 -7 -7 -208 -6 -209 71
0 72 0 0 -45 0 -45 -120 0 -120 0 0 108 c0 199 12 412 24 412 6 0 28 -3 48 -6z
m358 -41 c-1 -37 -48 -485 -52 -487 -2 -2 -25 -1 -51 2 -46 4 -48 5 -43 31 3
14 15 128 28 254 l22 227 48 0 c46 0 48 -1 48 -27z m-824 -4 c65 -31 68 -40
33 -82 l-30 -37 -28 21 c-32 24 -69 22 -85 -3 -14 -24 9 -46 110 -107 101 -61
127 -97 122 -169 -10 -123 -149 -180 -260 -107 -53 35 -56 49 -17 83 l34 30
28 -24 c39 -33 91 -33 112 0 23 35 9 56 -72 106 -110 69 -142 98 -154 140 -14
47 -7 79 27 119 43 51 113 63 180 30z m1026 -7 c3 -4 17 -89 29 -190 12 -100
26 -179 30 -175 4 5 49 76 100 158 50 83 93 151 94 153 3 4 86 -15 92 -22 3
-3 -59 -108 -137 -234 l-143 -229 -48 10 c-27 5 -49 15 -49 21 0 6 -14 117
-30 246 -16 129 -30 247 -30 261 0 26 1 27 43 17 23 -5 45 -12 49 -16z m-1342
-83 c6 -23 9 -43 7 -46 -3 -2 -41 -14 -84 -25 -43 -11 -79 -21 -81 -23 -5 -4
18 -85 24 -85 2 0 37 9 76 20 40 11 78 20 84 20 12 0 34 -50 34 -75 0 -7 -38
-22 -85 -35 -47 -13 -85 -26 -85 -30 0 -9 31 -114 35 -118 2 -2 40 6 85 19 46
12 85 18 89 13 11 -11 32 -76 27 -81 -9 -9 -267 -80 -270 -74 -11 20 -137 473
-134 483 4 12 206 75 245 77 18 1 24 -7 33 -40z m1841 -43 c19 -7 77 -30 131
-50 l96 -37 -16 -42 c-9 -23 -17 -44 -18 -46 -2 -2 -40 11 -85 28 -45 17 -83
30 -84 29 -2 -2 -10 -20 -18 -40 -18 -44 -22 -40 81 -78 34 -12 64 -26 67 -30
2 -4 -3 -25 -11 -47 l-16 -40 -75 28 c-41 16 -80 29 -88 29 -7 0 -22 -26 -33
-59 l-20 -59 84 -32 c46 -17 84 -33 84 -36 0 -11 -33 -84 -38 -84 -21 0 -252
95 -252 103 0 9 173 477 176 477 1 0 17 -6 35 -14z m-2276 -266 c43 -104 84
-190 89 -190 6 1 36 12 66 25 l55 24 18 -41 c10 -22 15 -44 10 -49 -4 -4 -53
-26 -107 -49 -78 -32 -101 -38 -107 -28 -13 21 -189 445 -189 456 0 8 61 40
81 41 3 1 41 -84 84 -189z m-255 59 c12 -23 20 -42 18 -43 -2 -2 -38 -22 -80
-45 l-77 -42 21 -37 c12 -20 23 -38 24 -40 1 -2 25 11 53 27 111 66 107 65
130 27 12 -18 21 -38 21 -43 0 -6 -26 -24 -57 -41 -104 -55 -101 -50 -64 -115
l32 -55 76 43 c42 24 80 42 85 39 5 -3 17 -22 27 -42 l19 -37 -121 -67 c-67
-37 -125 -64 -129 -60 -21 21 -247 437 -240 443 11 11 226 129 234 129 4 0 17
-18 28 -41z m3167 -80 c29 -14 50 -33 62 -58 22 -44 34 -91 24 -91 -5 -1 -27
-5 -50 -9 -34 -7 -43 -5 -43 6 0 22 -28 70 -45 76 -25 10 -45 -3 -45 -30 0
-14 14 -70 31 -124 34 -107 34 -139 -1 -197 -76 -123 -289 -38 -290 116 0 32
0 32 50 32 48 0 50 -1 50 -29 0 -67 86 -112 111 -58 8 18 4 43 -20 118 -49
153 -38 220 43 255 44 19 73 17 123 -7z m296 -211 c134 -104 125 -91 92 -137
l-28 -41 -38 30 -38 31 -127 -165 c-136 -178 -133 -176 -182 -124 l-22 25 126
162 c69 89 124 164 122 165 -1 1 -17 14 -35 28 l-31 25 25 37 c15 20 30 36 35
36 5 0 50 -32 101 -72z m-3832 48 c2 -3 3 -25 1 -50 l-4 -46 -42 0 c-114 -1
-212 -110 -191 -213 17 -83 84 -137 170 -137 95 0 165 57 173 141 l5 52 -62
-47 c-34 -27 -63 -47 -65 -45 -1 2 -12 17 -24 33 -12 16 -22 32 -22 36 0 6
114 98 182 148 15 11 20 8 43 -26 64 -96 51 -228 -30 -307 -64 -62 -126 -88
-205 -88 -79 0 -124 18 -183 72 -153 142 -93 387 114 461 49 17 129 27 140 16z
m2107 -57 c580 -62 1126 -320 1546 -728 153 -149 257 -274 366 -439 219 -329
350 -671 417 -1087 25 -159 25 -582 -1 -750 -117 -770 -553 -1442 -1201 -1853
-314 -199 -654 -325 -1035 -385 -194 -30 -566 -30 -760 0 -442 69 -840 233
-1186 488 -49 36 -85 65 -81 65 4 0 51 -7 104 -15 104 -17 268 -23 280 -11 30
29 -187 90 -417 117 l-95 11 -68 66 c-347 339 -597 774 -717 1247 -63 249 -75
353 -75 650 0 277 9 362 61 593 160 717 654 1367 1306 1723 290 158 647 272
963 307 114 13 478 14 593 1z m2021 -253 c99 -100 101 -105 54 -148 -18 -17
-22 -15 -78 42 -33 33 -64 60 -70 60 -6 0 -24 -14 -41 -31 l-29 -31 68 -61 68
-62 -36 -35 -35 -34 -63 62 -62 62 -48 -47 -47 -48 65 -65 65 -66 -33 -32 -33
-32 -103 97 -102 98 173 182 c95 100 178 182 183 182 6 1 52 -41 104 -93z
m-4518 -163 c80 -71 166 -146 191 -169 l46 -40 -31 -37 -32 -38 -178 26 c-98
15 -184 25 -192 23 -7 -2 40 -50 106 -106 l119 -104 -32 -38 -32 -38 -29 24
c-16 13 -103 90 -193 171 l-165 146 35 35 35 36 186 -28 c102 -16 188 -27 190
-25 2 2 -50 51 -116 108 -65 57 -119 106 -119 109 0 6 54 70 60 71 3 1 71 -56
151 -126z m4833 -188 c15 -19 25 -38 23 -43 -2 -4 -64 -105 -136 -225 -73
-120 -131 -220 -130 -221 2 -2 103 28 224 65 121 37 229 70 241 73 16 4 24 -3
41 -38 l21 -43 -129 -129 c-70 -70 -127 -130 -125 -132 3 -3 225 26 331 43 28
5 33 1 52 -38 l21 -44 -204 -149 c-112 -82 -207 -150 -212 -152 -8 -2 -42 60
-42 77 0 4 54 47 120 96 66 48 118 90 116 92 -2 3 -71 -5 -153 -16 -82 -12
-152 -21 -156 -21 -3 0 -15 17 -26 38 l-20 37 117 118 c64 64 112 117 107 117
-6 0 -74 -20 -153 -44 l-143 -44 -16 32 c-9 17 -33 51 -54 76 l-38 44 29 52
30 51 -62 79 c-33 44 -62 80 -63 81 -1 2 -26 -4 -55 -13 l-54 -16 -28 34 c-15
18 -28 38 -28 43 0 6 60 27 133 48 72 21 182 53 242 72 61 18 120 34 131 34
14 1 32 -12 48 -34z m-5139 -310 c137 -25 250 -47 251 -48 1 -1 -9 -21 -23
-45 -20 -34 -30 -42 -47 -38 -12 2 -37 8 -57 11 l-36 7 -51 -87 c-29 -48 -52
-89 -52 -92 0 -2 14 -24 31 -48 l31 -43 -23 -41 c-13 -23 -26 -40 -31 -39 -4
2 -81 99 -172 217 l-164 215 29 42 c19 28 34 41 46 38 10 -2 130 -24 268 -49z
m-482 -567 c9 -23 16 -42 14 -43 -1 0 -14 -6 -30 -13 -29 -13 -50 -52 -41 -77
10 -25 45 -17 127 30 95 54 144 70 190 61 138 -26 159 -221 32 -293 -62 -35
-82 -31 -93 20 -8 42 -8 42 30 59 47 21 66 57 50 93 -17 38 -53 32 -153 -26
-101 -59 -157 -71 -207 -45 -62 32 -85 133 -45 196 20 32 79 80 98 80 7 0 19
-19 28 -42z m6171 -192 c20 -66 34 -122 30 -125 -3 -3 -23 -11 -45 -17 l-39
-12 -26 84 c-14 49 -31 84 -38 84 -13 0 -76 -20 -76 -24 0 -1 11 -40 25 -86
14 -46 25 -84 25 -85 0 -8 -84 -25 -90 -18 -4 4 -18 43 -30 86 -15 51 -27 76
-36 73 -6 -2 -32 -10 -55 -17 -24 -7 -47 -15 -52 -19 -4 -3 4 -44 18 -90 14
-46 25 -84 25 -86 0 -2 -85 -24 -93 -24 -7 0 -80 260 -75 265 3 3 113 39 244
79 165 51 241 70 245 62 4 -6 23 -65 43 -130z m-6052 -193 c115 -63 166 -197
123 -324 -31 -92 -121 -161 -226 -175 -101 -14 -221 52 -270 149 -74 144 15
336 176 378 53 14 143 1 197 -28z m6126 -110 c6 -27 13 -73 17 -104 14 -116
-53 -179 -182 -170 -12 0 -38 16 -56 35 l-34 34 -101 -79 -101 -78 -10 50 c-6
28 -11 51 -11 53 0 2 43 36 95 76 53 40 94 75 91 77 -3 3 -48 -2 -102 -11 -53
-9 -98 -15 -100 -13 -2 2 -7 24 -10 49 l-6 46 68 11 c38 7 141 25 229 41 216
38 201 39 213 -17z m-335 -401 l25 -38 -29 -25 c-39 -33 -47 -71 -20 -98 12
-12 26 -21 32 -21 13 0 63 51 128 129 78 94 158 111 226 47 58 -55 59 -140 4
-216 l-31 -43 -36 36 -35 35 27 33 c29 34 31 66 5 82 -26 16 -43 3 -111 -82
-90 -115 -159 -145 -238 -102 -42 22 -80 90 -80 140 1 47 31 112 65 139 15 12
31 22 35 22 4 0 19 -17 33 -38z m-5706 -109 c-4 -38 -7 -92 -7 -120 l0 -53
-103 0 c-57 0 -172 3 -255 7 l-152 6 0 49 0 48 210 -6 210 -7 0 71 0 72 51 0
52 0 -6 -67z m5517 -1597 c110 -48 203 -89 207 -92 5 -3 -3 -22 -17 -44 l-26
-39 -76 34 c-43 18 -99 43 -127 55 -102 45 -101 45 -63 -2 18 -23 65 -82 104
-132 l72 -90 -25 -37 c-24 -36 -25 -37 -61 -27 -20 6 -93 26 -162 44 l-125 33
50 -47 c28 -26 81 -75 119 -110 74 -68 74 -68 31 -126 -14 -18 -16 -17 -57 20
-152 136 -338 309 -338 314 0 3 12 22 26 43 17 25 31 37 41 33 8 -3 27 -9 41
-12 15 -4 85 -22 156 -41 70 -19 130 -32 133 -29 3 3 -41 62 -98 133 -57 70
-107 134 -112 141 -7 8 -1 25 17 52 26 40 27 40 59 26 17 -7 122 -53 231 -100z
m-5132 36 c88 -136 89 -202 4 -267 -44 -34 -92 -41 -139 -21 l-37 15 -23 -37
c-13 -20 -41 -67 -62 -104 -22 -38 -42 -68 -45 -68 -8 0 -50 68 -50 81 0 7 27
58 59 115 33 57 58 104 56 104 -3 0 -46 -25 -96 -57 -73 -45 -93 -53 -100 -42
-21 30 -40 71 -36 75 8 9 421 264 427 264 3 0 22 -26 42 -58z m296 -410 l31
-38 -128 -238 c-71 -131 -132 -236 -137 -234 -5 2 -22 17 -37 35 l-28 32 28
49 27 49 -63 74 c-35 41 -68 75 -72 77 -5 2 -31 -4 -59 -13 l-50 -17 -27 33
c-16 18 -28 37 -28 42 0 6 68 34 150 62 83 29 193 69 245 88 52 19 100 36 107
36 6 1 25 -16 41 -37z m4435 -118 c121 -117 147 -156 147 -219 0 -105 -131
-200 -225 -164 -21 8 -101 73 -185 149 l-149 135 32 33 c35 36 49 39 68 15 8
-9 69 -67 137 -130 83 -76 130 -113 146 -113 34 0 76 43 76 79 0 25 -22 50
-142 165 l-142 136 34 34 33 35 26 -20 c14 -12 79 -72 144 -135z m-4199 -123
l28 -30 -173 -190 -174 -191 -35 35 -34 35 25 27 c14 16 90 99 168 186 79 86
149 157 155 157 7 0 25 -13 40 -29z m3786 -61 l20 -28 -70 -53 c-38 -30 -69
-56 -69 -59 -1 -3 11 -21 27 -39 l27 -33 70 56 70 56 28 -30 c15 -17 27 -35
27 -40 0 -5 -29 -33 -65 -62 -36 -28 -65 -54 -65 -56 0 -6 73 -102 78 -102 2
0 35 26 73 57 l71 57 26 -34 c15 -19 27 -37 27 -41 0 -4 -48 -45 -106 -92
l-107 -86 -157 198 c-87 109 -158 201 -157 205 1 4 47 44 104 90 110 89 110
89 148 36z m-3648 -56 l38 -27 -27 -36 c-15 -20 -71 -93 -125 -164 -92 -120
-109 -147 -90 -147 4 0 27 -18 52 -39 l44 -39 -27 -36 -28 -36 -94 72 c-61 46
-92 76 -87 84 12 22 297 393 301 394 3 0 22 -12 43 -26z m347 -240 c63 -50 74
-118 29 -192 -24 -39 -65 -62 -111 -62 -44 0 -47 -8 -47 -128 0 -124 -5 -132
-60 -101 l-42 24 7 123 c3 67 4 122 2 122 -3 0 -26 -35 -51 -77 -25 -43 -50
-84 -55 -92 -7 -11 -16 -10 -47 9 -22 13 -41 25 -42 26 -2 1 56 102 128 223
l133 221 61 -35 c33 -19 76 -46 95 -61z m3013 67 c4 -3 2 -25 -5 -48 -11 -42
-12 -43 -48 -37 -43 7 -79 -9 -79 -36 0 -26 6 -29 134 -55 124 -25 165 -46
191 -101 41 -87 -13 -186 -117 -215 -43 -11 -121 2 -134 23 -4 5 2 28 12 49
13 30 21 38 33 33 62 -27 121 -6 121 42 0 34 -33 51 -125 64 -44 7 -97 19
-117 27 -133 53 -112 221 32 261 34 9 88 6 102 -7z m-238 -309 c60 -137 76
-182 76 -221 0 -61 -30 -107 -90 -140 -80 -45 -170 -27 -217 42 -18 27 -104
207 -159 334 l-14 33 41 21 c23 11 45 17 50 12 4 -4 33 -66 64 -136 67 -156
94 -210 109 -219 21 -14 63 -8 91 14 37 29 33 49 -54 243 -39 87 -70 159 -68
161 16 13 84 41 88 36 4 -4 41 -85 83 -180z m-2390 76 c57 -17 138 -99 159
-162 49 -142 -22 -294 -161 -347 -176 -66 -358 62 -357 251 1 187 176 312 359
258z m1985 -314 c54 -126 96 -232 92 -236 -3 -4 -24 -10 -47 -13 l-40 -7 -59
137 c-33 75 -62 138 -66 140 -3 3 -9 -42 -13 -98 -4 -56 -9 -129 -13 -163 l-5
-61 -42 -10 c-22 -7 -43 -8 -46 -4 -3 4 -43 67 -89 139 -46 73 -85 131 -87
129 -2 -1 1 -57 6 -122 16 -199 17 -191 -32 -203 -23 -6 -44 -9 -46 -7 -3 2
-10 93 -18 202 -7 109 -15 226 -17 260 l-5 62 32 6 c17 4 38 9 47 11 13 4 42
-35 115 -151 53 -85 99 -154 101 -152 1 2 10 84 18 182 8 98 16 179 17 180 10
8 85 21 91 15 4 -3 52 -110 106 -236z m-1445 146 c8 -8 109 -531 103 -536 -1
-2 -23 2 -49 7 -49 11 -51 14 -63 81 -4 28 -12 39 -28 43 -45 11 -181 35 -182
32 -41 -69 -62 -96 -75 -93 -8 3 -30 7 -47 11 -18 4 -33 8 -33 10 0 3 61 105
136 227 75 123 138 227 141 232 7 10 84 -1 97 -14z m479 -50 c169 -50 214
-331 71 -448 -50 -42 -121 -56 -235 -47 l-89 7 0 102 c0 57 3 172 7 256 l6
153 101 -6 c56 -3 118 -11 139 -17z"/>
<path d="M3348 5965 c-73 -18 -120 -43 -181 -94 -27 -23 -68 -46 -90 -52 -85
-23 -126 -41 -177 -79 -29 -22 -61 -42 -72 -45 -25 -9 -32 -43 -23 -123 13
-122 61 -288 119 -408 l55 -114 -65 -36 c-100 -56 -107 -73 -124 -309 -14
-192 -28 -311 -41 -353 -9 -28 -22 -39 -74 -62 -34 -15 -65 -33 -69 -38 -9
-15 44 -45 83 -46 32 -1 36 2 34 22 -3 27 16 29 47 4 13 -11 25 -36 31 -67 5
-28 26 -77 46 -109 20 -33 36 -72 36 -87 0 -35 -294 -651 -330 -691 -22 -24
-27 -23 -62 15 -28 29 -31 30 -31 11 0 -68 -175 -121 -430 -130 -80 -3 -164
-7 -187 -10 l-41 -5 -4 -94 c-2 -79 -6 -97 -25 -117 -29 -31 -42 -67 -54 -154
-13 -95 -6 -109 62 -117 61 -8 75 -17 83 -60 13 -70 -43 -491 -77 -576 -18
-45 -32 -62 -74 -91 -29 -19 -52 -38 -53 -42 0 -5 16 -8 35 -8 44 0 44 -12 0
-46 -19 -14 -35 -32 -35 -40 0 -19 72 -54 111 -54 17 0 76 -18 130 -40 157
-63 395 -93 445 -55 37 28 -1 37 -229 55 -70 5 -137 14 -148 20 -56 30 -41
107 34 181 67 65 87 97 87 134 l0 29 16 -22 c22 -32 37 -27 57 21 20 49 72
115 82 106 12 -13 -56 -130 -111 -190 -57 -62 -74 -93 -74 -135 0 -27 17 -32
34 -10 89 112 273 361 485 658 355 498 362 501 68 28 -218 -350 -367 -575
-426 -641 -22 -26 -37 -49 -34 -53 10 -9 196 -7 212 3 9 6 10 11 2 15 -6 4
-11 15 -11 25 0 23 74 174 151 308 114 199 319 543 324 543 7 0 -26 -71 -225
-479 -128 -263 -179 -376 -171 -384 7 -7 74 -7 225 2 275 16 411 33 436 56 27
25 57 93 100 230 21 66 61 193 89 282 50 159 75 212 64 136 -19 -137 -119
-533 -151 -600 -23 -48 -11 -53 126 -53 l112 0 0 53 c0 81 37 310 70 432 l29
110 -2 -222 c-1 -122 -6 -225 -10 -229 -4 -4 -14 1 -22 12 -13 17 -14 15 -15
-31 0 -79 2 -80 145 -83 69 -2 125 -7 125 -12 0 -18 -94 -33 -330 -55 -188
-18 -243 -35 -119 -36 40 0 83 -4 94 -8 18 -7 17 -8 -6 -14 -13 -3 -96 -13
-184 -22 -208 -21 -267 -30 -340 -56 -41 -14 -93 -22 -170 -25 -60 -3 -121 -8
-135 -10 l-25 -6 23 -18 c23 -19 22 -19 -80 -13 -85 5 -101 3 -90 -8 20 -21
14 -36 -21 -50 l-32 -13 41 -4 c25 -2 49 -11 60 -23 27 -30 6 -40 -54 -24
-104 27 -362 31 -362 6 0 -17 278 -61 384 -61 48 0 67 -4 79 -18 24 -26 22
-30 -23 -42 -25 -7 -40 -17 -40 -27 0 -13 7 -14 43 -8 108 18 110 18 105 4 -2
-7 -33 -28 -69 -47 l-64 -33 80 6 c105 8 185 22 269 47 48 15 110 22 215 27
154 6 182 18 89 36 l-53 11 89 22 c88 23 159 52 171 72 10 16 25 11 25 -8 0
-31 12 -33 46 -7 41 32 48 31 40 -2 -4 -15 -3 -29 4 -33 6 -4 57 1 113 11 56
10 172 25 257 34 178 18 232 30 255 55 22 25 3 55 -48 75 -74 30 -157 15 -226
-40 -52 -42 -64 -44 -55 -10 6 23 3 25 -27 25 -19 0 -54 -5 -78 -11 -24 -5
-46 -7 -50 -3 -3 3 11 20 32 37 20 18 37 35 37 38 0 4 -30 -1 -67 -10 -59 -15
-68 -20 -65 -39 4 -24 -23 -42 -63 -42 -20 0 -26 4 -22 15 10 24 -8 26 -69 4
-33 -11 -70 -18 -84 -17 l-25 3 30 16 c17 9 92 35 168 58 77 23 151 48 167 56
15 8 114 39 218 69 196 57 288 94 299 123 3 9 1 30 -6 47 -26 63 -26 69 -3 57
11 -6 24 -11 27 -11 14 0 -10 49 -51 102 -24 31 -44 59 -44 62 0 3 9 15 20 26
11 11 20 29 20 40 0 11 30 63 67 117 115 169 138 265 92 374 -12 27 -19 52
-15 56 12 12 83 -17 124 -52 46 -40 106 -150 100 -186 -2 -19 -11 -25 -39 -30
-20 -3 -56 -17 -80 -31 -57 -34 -168 -146 -176 -177 -3 -13 2 -48 11 -78 21
-67 23 -142 5 -212 -18 -72 -8 -86 62 -86 64 0 217 48 249 77 19 17 21 27 15
64 -6 43 -6 44 25 50 17 4 35 15 40 25 11 20 13 118 4 143 -15 40 -54 3 -54
-52 0 -16 -9 -40 -19 -53 -16 -20 -23 -22 -38 -13 -10 6 -19 26 -21 43 -4 44
33 163 57 185 26 24 45 11 37 -25 -5 -27 -4 -29 14 -19 11 6 24 28 30 50 6 22
21 49 33 60 25 24 17 33 -44 50 -20 6 -42 17 -49 25 -25 31 14 140 60 165 29
15 36 -9 21 -73 -6 -28 -8 -54 -3 -59 8 -8 69 1 124 18 14 4 10 -10 -18 -73
-56 -120 -74 -179 -90 -291 -8 -57 -23 -121 -34 -142 -11 -22 -20 -42 -20 -45
0 -8 61 -6 103 4 51 12 42 5 -44 -35 l-72 -32 44 -12 c61 -17 215 -29 269 -21
l45 6 -32 14 c-20 8 -33 21 -33 31 0 18 33 34 142 69 43 14 66 37 51 52 -6 6
-41 0 -99 -17 -152 -45 -161 -47 -176 -42 -11 5 -17 39 -26 145 -7 77 -12 173
-12 214 l1 74 33 -38 c38 -42 46 -45 46 -17 0 26 16 26 30 -1 17 -30 13 -178
-6 -254 -10 -40 -13 -70 -8 -75 6 -6 35 -1 73 10 70 22 122 25 152 10 14 -8
19 -21 19 -55 0 -35 5 -48 26 -64 36 -28 84 -28 84 -1 0 13 -7 20 -19 20 -25
0 -37 18 -17 26 9 3 31 -3 49 -15 19 -12 41 -21 50 -21 24 0 30 31 8 51 -15
14 -18 27 -13 65 l5 47 -64 -6 -64 -6 35 16 c21 10 59 16 95 16 33 -1 66 3 73
9 18 15 15 36 -7 43 -46 14 -51 96 -12 195 26 67 28 170 5 226 -15 35 -32 245
-34 397 0 49 -14 63 -25 26 -5 -16 -13 -20 -31 -16 -28 5 -29 4 -9 -27 23 -35
43 -145 51 -278 8 -135 3 -148 -57 -148 -86 0 -121 36 -73 75 l29 23 0 174 c0
203 -18 301 -66 368 l-30 41 40 -27 c23 -15 47 -24 57 -20 8 3 25 -1 37 -9 28
-19 34 -19 39 3 7 26 -9 62 -27 62 -13 0 -15 6 -10 30 8 38 -5 55 -53 71 -47
15 -82 46 -82 73 0 12 -12 48 -26 81 -56 131 -65 157 -52 153 7 -2 31 -34 53
-71 43 -72 56 -82 86 -67 26 14 24 51 -5 108 -31 60 -61 92 -87 92 -15 0 -19
5 -15 18 15 47 -86 77 -303 91 -129 7 -146 11 -206 40 -75 37 -163 118 -192
176 -11 22 -25 67 -32 100 -13 61 -34 105 -51 105 -5 0 -16 -24 -24 -53 -8
-29 -27 -64 -41 -77 -21 -20 -24 -29 -19 -62 8 -49 -7 -50 -70 -2 -63 48 -150
86 -209 92 -44 4 -49 3 -45 -14 2 -11 13 -20 26 -22 12 -2 22 -8 22 -13 0 -24
-45 -3 -111 53 -50 42 -75 47 -95 21 -12 -17 -14 -17 -44 0 -42 23 -50 22 -50
-6 0 -30 -24 -62 -38 -53 -7 4 -12 22 -12 40 0 19 -6 38 -13 44 -7 6 -58 13
-113 14 l-99 3 28 28 c24 24 34 28 65 24 20 -3 47 -8 59 -12 20 -6 22 -3 28
47 4 29 7 130 8 225 2 135 -1 175 -12 185 -11 11 -13 8 -8 -17 3 -17 2 -37 -3
-45 -19 -31 -54 34 -75 137 -9 44 -48 73 -97 73 -24 0 -37 4 -33 10 3 6 25 10
49 10 50 0 109 -35 176 -104 24 -25 48 -46 52 -46 4 0 8 27 8 60 0 61 24 140
42 140 10 0 7 -51 -8 -160 -4 -32 -4 -33 7 -10 22 51 69 253 69 297 0 34 -6
53 -25 75 -17 20 -25 42 -25 66 l0 36 40 -39 c26 -26 43 -36 50 -29 12 12 50
157 50 191 0 12 -4 23 -10 23 -5 0 -10 -7 -10 -15 0 -24 -43 -39 -69 -26 -11
7 -21 16 -21 21 0 4 25 31 56 58 l55 50 -26 27 c-22 21 -26 32 -21 58 9 43 20
52 64 51 76 -2 181 -78 233 -169 66 -114 31 -217 -217 -651 -57 -100 -104
-187 -104 -193 0 -9 5 -9 20 -1 18 9 22 6 36 -30 21 -51 137 -160 210 -196 45
-22 73 -27 173 -33 78 -5 125 -12 136 -21 9 -7 28 -36 41 -63 42 -81 107 -92
206 -34 49 29 125 103 115 113 -3 4 -39 -13 -79 -37 -66 -40 -78 -44 -138 -44
-59 0 -65 2 -68 22 -3 20 0 21 30 16 23 -3 60 4 113 23 50 17 112 29 165 33
81 6 85 7 98 34 18 38 6 48 -43 37 -22 -5 -50 -10 -63 -10 l-23 0 20 29 c21
29 38 37 161 76 76 23 230 97 260 124 l25 22 -42 -4 c-26 -3 -59 -17 -85 -36
-51 -37 -181 -81 -242 -81 -35 0 -52 -8 -100 -44 -57 -45 -89 -59 -157 -70
-20 -4 -54 -20 -75 -36 -42 -34 -50 -33 -128 9 l-50 26 60 6 c77 8 91 15 103
50 8 23 24 36 76 59 59 27 87 52 72 66 -3 3 -23 -6 -44 -20 -37 -26 -93 -35
-93 -16 0 18 72 90 96 96 14 4 40 -1 61 -11 76 -37 340 2 389 56 30 34 73 48
130 42 38 -4 62 0 98 16 52 22 53 36 4 46 -25 6 -34 3 -47 -13 -28 -35 -81
-34 -81 3 0 15 -9 31 -25 41 -23 15 -25 22 -25 90 0 60 -3 76 -16 81 -11 4
-22 -1 -30 -13 -26 -37 -35 -44 -59 -44 -18 0 -25 -5 -25 -20 0 -20 4 -22 45
-24 18 -1 20 -8 19 -66 -1 -75 -24 -130 -54 -130 -16 0 -20 7 -20 35 0 44 -21
86 -56 114 -35 28 -42 26 -46 -6 -2 -21 -13 -33 -40 -46 -70 -34 -238 -47
-238 -17 0 4 21 15 47 24 26 9 60 30 75 46 16 18 37 30 52 30 16 0 32 9 41 24
14 20 22 24 51 19 36 -6 64 9 64 34 0 10 -4 11 -19 3 -42 -22 -42 0 0 63 28
43 31 67 9 67 -18 0 -83 -65 -96 -97 -19 -45 -121 -127 -191 -153 -115 -44
-244 -50 -289 -14 -18 14 -17 15 17 9 28 -4 39 -1 55 16 10 12 52 37 92 55 68
31 77 40 73 72 -2 15 -6 16 57 -8 65 -25 80 -19 167 70 l60 61 -55 -6 c-97
-12 -120 -22 -120 -56 0 -36 -4 -36 -44 -3 -42 36 -55 58 -28 50 14 -5 29 2
51 24 38 38 41 77 8 108 -30 28 -39 28 -31 -2 10 -39 -42 -65 -173 -86 -96
-16 -153 9 -77 33 45 15 87 50 112 95 26 48 18 57 -35 43 -66 -19 -66 -12 1
45 36 30 66 57 66 59 0 2 -24 -3 -52 -11 -73 -19 -78 -17 -39 15 48 40 35 51
-61 51 -45 0 -110 5 -146 11 -54 10 -71 18 -105 51 -49 47 -117 84 -184 98
-26 6 -58 12 -69 15 -12 3 -41 21 -64 40 -32 26 -51 35 -79 35 -45 0 -126 27
-201 66 -50 26 -53 29 -28 32 25 3 398 -33 448 -43 31 -7 -47 30 -120 57 -73
27 -261 34 -342 13z m869 -560 c42 -18 73 -43 73 -59 0 -11 -191 -76 -223 -76
-39 0 -6 112 41 140 25 14 68 12 109 -5z m-947 -135 c-8 -5 -24 -10 -35 -10
-11 0 -27 5 -35 10 -11 7 -1 10 35 10 36 0 46 -3 35 -10z m995 -126 l17 -27
-37 6 c-39 6 -75 31 -75 53 0 35 65 13 95 -32z m144 40 c9 -8 -33 -44 -52 -44
-20 0 -57 26 -57 41 0 16 92 18 109 3z m-1149 -35 c0 -16 -4 -29 -10 -29 -5 0
-10 16 -10 36 0 21 4 33 10 29 6 -3 10 -19 10 -36z m870 -80 c0 -29 -26 -74
-56 -98 -33 -26 -41 -26 -49 -1 -10 33 4 58 40 70 24 8 37 20 41 36 7 27 24
23 24 -7z m-997 -139 c76 -24 114 -51 133 -96 11 -26 18 -31 35 -27 19 5 21 3
15 -18 -15 -53 -36 -162 -35 -182 l0 -22 16 23 c19 28 33 28 33 2 0 -49 -79
-140 -120 -140 -11 0 -53 -12 -95 -26 -41 -14 -79 -23 -85 -19 -5 3 -10 36
-10 73 0 70 17 112 46 112 38 0 3 48 -58 78 -77 39 -67 192 16 243 38 23 30
23 109 -1z m1212 -47 c0 -27 2 -28 69 -33 64 -5 67 -6 50 -21 -48 -42 -181
-89 -253 -89 -33 0 -34 0 -16 20 10 11 42 32 72 46 48 24 53 30 53 59 0 30 6
45 20 45 3 0 6 -12 5 -27z m-486 -18 c17 -20 31 -40 31 -45 0 -32 -112 -40
-118 -8 -5 25 25 88 41 88 8 0 29 -16 46 -35z m931 17 c0 -17 -57 -62 -105
-82 -49 -21 -145 -39 -145 -27 0 11 79 58 149 88 67 29 101 36 101 21z m-1871
-93 c1 -15 14 -52 30 -82 16 -30 32 -69 36 -86 8 -38 -8 -71 -33 -64 -41 10
-31 -70 10 -82 21 -7 24 -25 3 -25 -26 0 -84 60 -111 117 -26 51 -27 59 -17
108 6 29 24 82 40 118 23 55 29 62 35 44 3 -12 6 -34 7 -48z m1156 -13 c25
-18 14 -42 -23 -49 -19 -4 -33 -14 -37 -27 -8 -25 -38 -23 -43 3 -3 17 57 87
75 87 5 0 18 -6 28 -14z m-711 -74 c9 -24 19 -71 21 -105 l5 -62 -25 51 c-14
29 -28 78 -31 115 -7 71 2 71 30 1z m553 -99 c77 -98 59 -112 -29 -25 -65 66
-79 104 -29 78 16 -9 42 -32 58 -53z m264 6 c7 -15 8 -24 0 -32 -14 -14 -41 9
-41 34 0 26 27 24 41 -2z m-74 -61 c26 -24 31 -68 9 -68 -19 0 -56 47 -56 71
0 25 18 24 47 -3z m-377 -291 c0 -12 -5 -29 -10 -37 -7 -11 -10 -3 -10 28 0
26 4 41 10 37 6 -3 10 -16 10 -28z m-581 -72 c32 -16 44 -39 36 -65 -7 -21
-86 -61 -124 -63 -25 -2 -26 0 -29 58 -3 47 0 62 14 72 24 17 68 16 103 -2z
m887 -61 c-3 -8 -12 -14 -21 -14 -21 0 -19 39 3 70 l17 25 3 -33 c2 -19 1 -40
-2 -48z m-468 30 c2 -19 -3 -36 -15 -46 -18 -15 -123 -33 -122 -20 1 12 114
102 124 99 6 -2 11 -17 13 -33z m-654 5 c51 -24 36 -80 -16 -60 -28 11 -60 49
-52 63 7 11 39 10 68 -3z m1046 -74 c39 -28 68 -31 125 -10 47 16 197 20 226
5 42 -23 18 -30 -80 -24 -56 4 -100 3 -104 -2 -3 -5 1 -35 8 -67 20 -85 23
-149 7 -155 -21 -7 -112 93 -112 124 0 25 -50 84 -71 84 -5 0 -8 -36 -7 -80 1
-83 -4 -102 -24 -82 -14 14 -25 232 -11 232 5 0 24 -11 43 -25z m-303 -77 c46
-44 41 -56 -7 -18 -37 29 -50 50 -33 50 4 0 22 -14 40 -32z m724 -39 c46 -23
69 -66 69 -126 0 -57 -12 -70 -44 -50 -31 21 -50 21 -66 2 -31 -37 -110 6
-110 60 0 30 15 33 30 5 15 -28 26 -25 55 17 31 46 32 65 3 78 -12 6 -23 16
-26 23 -6 19 44 15 89 -9z m-581 -29 c11 -6 33 -30 50 -55 32 -47 26 -56 -20
-30 -14 8 -40 14 -58 15 -38 0 -50 20 -34 56 12 26 32 30 62 14z m11 -134 c10
-24 24 -82 30 -128 15 -107 6 -336 -15 -405 -17 -54 -54 -93 -88 -93 -23 0
-88 -61 -88 -83 0 -8 -7 -20 -15 -27 -24 -20 -19 10 17 97 26 65 32 91 32 155
0 70 2 76 14 53 7 -14 17 -25 23 -25 5 0 26 34 46 75 46 99 52 166 24 302 -24
116 -25 123 -10 123 5 0 19 -20 30 -44z m261 -124 c35 -33 64 -71 74 -98 15
-40 15 -46 1 -68 -9 -13 -29 -27 -45 -31 -35 -7 -62 -35 -90 -91 -27 -52 -47
-70 -65 -55 -19 15 -27 4 -27 -34 0 -40 -24 -75 -41 -58 -9 9 -8 32 5 100 9
48 16 136 16 195 0 59 5 141 11 182 l11 75 47 -31 c25 -18 72 -56 103 -86z
m-791 85 c51 -34 82 -100 75 -165 -7 -75 -38 -119 -104 -149 -68 -32 -133 -28
-190 10 -114 75 -87 253 48 311 54 23 130 20 171 -7z m843 -1 c-4 -18 0 -28
18 -40 23 -17 23 -17 -17 -14 -46 3 -58 27 -29 59 23 26 36 24 28 -5z m-583
-91 c18 -97 -12 -211 -72 -280 -53 -60 -82 -39 -33 26 39 52 46 75 54 196 5
62 11 117 15 123 12 20 24 -3 36 -65z m739 61 c16 -20 9 -60 -12 -64 -21 -4
-44 38 -35 62 8 20 31 21 47 2z m122 -3 c20 -13 41 -43 68 -100 39 -82 60
-103 100 -103 16 0 19 -4 15 -23 -4 -16 4 -45 25 -85 32 -63 70 -165 70 -189
0 -37 -140 8 -190 61 -21 23 -25 37 -25 89 0 58 -1 61 -29 68 -16 5 -42 20
-58 36 -29 27 -57 97 -44 110 11 11 66 -49 66 -73 0 -27 22 -37 56 -24 29 11
28 30 -4 45 -11 5 -22 20 -24 34 -2 17 -15 31 -42 45 -45 24 -69 68 -55 104
10 27 31 28 71 5z m-955 -46 c3 -20 2 -62 -2 -94 l-8 -58 -8 40 c-12 62 -11
171 1 159 6 -6 13 -27 17 -47z m1423 -6 c5 -11 10 -84 10 -166 0 -135 -1 -146
-17 -141 -10 2 -49 8 -87 12 -103 10 -108 18 -104 161 3 107 5 116 27 134 34
28 156 28 171 0z m-657 -52 c52 -26 97 -67 97 -88 0 -9 -9 -22 -20 -29 -18
-11 -20 -19 -14 -61 4 -33 2 -51 -6 -56 -18 -11 -29 5 -44 66 -8 29 -26 79
-40 109 -25 53 -32 80 -21 80 3 0 25 -9 48 -21z m-1483 -170 c0 -21 53 -145
78 -182 38 -56 24 -64 -89 -50 -50 7 -93 14 -95 16 -7 7 89 236 98 231 4 -3 8
-10 8 -15z m1370 -49 c0 -16 -43 -50 -62 -50 -25 0 -14 16 26 41 36 22 36 22
36 9z m340 0 c0 -5 -16 -10 -35 -10 -19 0 -35 5 -35 10 0 6 16 10 35 10 19 0
35 -4 35 -10z m606 -87 c22 -47 33 -236 15 -248 -16 -9 -51 1 -81 24 l-25 20
24 25 c22 24 23 29 16 110 -4 47 -4 90 0 96 13 20 33 9 51 -27z m-756 -18 c14
-17 5 -51 -17 -59 -19 -8 -33 9 -33 40 0 36 27 46 50 19z m-252 -37 c-2 -19
-10 -24 -40 -26 -45 -4 -48 7 -10 30 39 23 54 22 50 -4z m117 -18 c-3 -5 -17
-10 -30 -10 -13 0 -27 5 -30 10 -4 6 8 10 30 10 22 0 34 -4 30 -10z m260 -92
c51 -24 92 -55 83 -63 -19 -19 -168 52 -168 81 0 17 19 14 85 -18z m-1889 2
c23 -9 26 -14 20 -43 -11 -55 -86 -147 -86 -105 0 7 9 31 21 52 27 51 16 62
-86 81 -43 9 -81 18 -84 20 -9 10 188 5 215 -5z m1804 -48 c44 -21 60 -36 78
-72 24 -49 29 -98 9 -106 -15 -6 -250 42 -277 56 -31 17 -24 37 34 96 63 63
78 65 156 26z m-2096 -16 c31 -13 36 -19 36 -49 0 -58 -11 -61 -177 -42 -81 9
-158 21 -170 26 -29 11 -32 62 -5 79 25 16 270 5 316 -14z m2896 -134 c0 -31
-5 -64 -10 -72 -7 -10 -10 9 -10 63 0 50 4 76 10 72 6 -3 10 -32 10 -63z
m-2095 38 c-3 -5 -17 -10 -30 -10 -13 0 -27 5 -30 10 -4 6 8 10 30 10 22 0 34
-4 30 -10z m350 0 c-8 -13 -105 -13 -125 0 -10 7 7 10 58 10 46 0 71 -4 67
-10z m1207 -41 c10 -19 21 -57 24 -83 l7 -48 -46 49 c-26 28 -47 59 -47 71 0
61 35 68 62 11z m-164 -75 c31 -20 28 -34 -8 -34 -40 0 -90 26 -90 46 0 13 7
15 38 9 20 -3 47 -13 60 -21z m-237 -32 c4 -19 3 -66 -1 -105 -4 -40 -8 -58
-9 -41 -2 50 -31 137 -54 162 l-22 23 40 -3 c36 -3 40 -6 46 -36z m-1457 -29
c-63 -98 -338 -453 -350 -453 -14 0 197 288 305 418 54 65 76 82 45 35z m536
-200 c-104 -424 -171 -647 -206 -683 l-24 -25 0 41 c0 51 26 153 96 372 67
212 175 514 181 508 2 -2 -19 -98 -47 -213z m250 76 c-38 -225 -129 -666 -144
-704 -16 -38 -36 -39 -36 -2 0 58 95 481 182 807 20 78 20 26 -2 -101z m107
44 c-2 -39 -14 -88 -26 -113 -12 -25 -19 -37 -16 -26 3 10 11 61 17 112 14
108 33 128 25 27z m-705 -130 c-57 -134 -249 -558 -294 -646 -26 -53 -51 -77
-64 -64 -3 3 13 50 36 104 53 123 361 736 367 729 3 -2 -18 -58 -45 -123z
m219 -44 c-83 -273 -198 -596 -223 -626 -14 -18 -38 -17 -38 2 0 65 289 810
307 792 2 -3 -19 -78 -46 -168z m1984 101 c22 -10 63 -22 90 -25 53 -8 78 -21
69 -36 -3 -5 -40 -9 -82 -9 -65 0 -73 -2 -58 -13 18 -13 17 -15 -8 -34 -33
-27 -33 -38 4 -80 33 -37 35 -52 18 -121 l-12 -47 -10 55 c-11 54 -12 55 -44
53 -32 -1 -33 0 -30 35 l3 37 -53 -3 c-45 -3 -58 0 -78 19 -14 13 -46 35 -72
49 -38 20 -47 31 -50 55 -1 17 2 37 7 45 9 12 13 11 33 -7 13 -12 40 -28 61
-37 20 -8 37 -19 37 -24 0 -5 11 -21 25 -36 23 -25 68 -35 79 -18 3 5 -6 35
-19 68 -24 57 -32 114 -18 127 3 4 20 -2 37 -14 17 -11 49 -29 71 -39z m-2091
-61 c-128 -371 -324 -791 -324 -695 0 31 34 116 150 371 64 143 130 289 146
325 30 71 54 113 61 107 2 -2 -13 -51 -33 -108z m1031 21 c-3 -5 -19 -10 -36
-10 -16 0 -29 5 -29 10 0 6 16 10 36 10 21 0 33 -4 29 -10z m-236 -117 c13
-87 14 -153 1 -173 -17 -27 -30 37 -30 153 0 124 12 133 29 20z m599 -33 c-5
-17 -14 -33 -20 -36 -19 -12 -21 7 -5 42 21 42 41 37 25 -6z m-2068 -158 c0
-9 -40 -47 -75 -73 -19 -13 -19 -13 -6 6 42 57 81 89 81 67z m1612 -97 c-9
-18 -19 -25 -41 -25 -37 0 -77 31 -68 53 9 24 24 21 51 -8 28 -30 36 -31 36
-6 0 11 3 27 7 37 6 16 8 16 16 -4 7 -15 6 -30 -1 -47z m-182 -57 c0 -57 -3
-78 -10 -68 -15 24 -10 150 6 150 2 0 4 -37 4 -82z m625 -76 c3 -8 -1 -22 -9
-30 -13 -13 -18 -13 -40 2 -27 17 -34 42 -14 48 22 8 56 -4 63 -20z m-125 -8
c0 -17 -35 -54 -51 -54 -7 0 -9 10 -5 28 11 44 56 66 56 26z m-400 -4 c48 -25
54 -34 32 -52 -59 -52 -92 -42 -92 28 0 50 5 52 60 24z m148 -124 c-2 -11 -8
-21 -15 -23 -14 -5 -33 58 -32 107 l1 35 24 -50 c13 -27 23 -59 22 -69z
m-1270 -273 c19 -26 25 -28 95 -28 64 0 80 4 108 24 24 18 49 25 101 29 44 3
68 1 68 -6 0 -6 -56 -29 -125 -52 -131 -44 -155 -64 -90 -76 26 -5 41 -2 54
10 11 10 35 16 65 16 31 0 48 5 52 14 11 28 115 49 129 26 9 -14 -91 -58 -272
-119 -169 -57 -189 -61 -174 -32 12 22 5 31 -24 31 -29 0 -41 -16 -48 -64 -8
-52 -21 -64 -46 -42 -48 43 -34 100 30 126 16 7 29 16 29 20 0 4 -29 14 -65
21 -78 15 -96 25 -75 39 26 16 100 23 126 11 29 -13 30 -7 4 26 -28 36 -25 53
9 53 20 0 35 -8 49 -27z m1197 -17 c17 -12 17 -16 6 -30 -19 -22 -126 -19
-126 4 0 33 85 52 120 26z"/>
<path d="M3076 4816 c-19 -42 -18 -77 1 -84 22 -7 36 42 26 85 l-10 38 -17
-39z"/>
<path d="M3145 4624 c-13 -14 -27 -42 -32 -62 -7 -30 -13 -37 -33 -37 -20 0
-26 -6 -28 -27 -4 -36 21 -37 88 -3 76 38 98 85 64 133 -20 28 -30 28 -59 -4z"/>
<path d="M3803 3428 c-18 -21 -63 -121 -63 -138 1 -22 27 14 57 78 25 53 28
87 6 60z"/>
<path d="M3135 3744 c-39 -20 -83 -62 -101 -96 -19 -37 -17 -77 6 -115 59 -97
217 -77 271 34 18 36 19 48 9 77 -15 45 -45 83 -80 101 -37 19 -67 19 -105 -1z
m69 -100 c9 -8 16 -31 16 -50 0 -30 -3 -34 -25 -34 -27 0 -65 32 -65 54 0 14
36 46 52 46 3 0 14 -7 22 -16z"/>
<path d="M4249 3083 c-13 -34 0 -88 21 -88 17 0 25 52 16 91 -8 32 -24 30 -37
-3z"/>
<path d="M3917 5904 c-4 -4 7 -14 24 -21 17 -7 33 -22 36 -33 4 -15 14 -20 42
-20 20 0 61 -12 91 -27 49 -23 67 -27 165 -28 88 0 118 -4 150 -20 22 -11 39
-24 37 -30 -1 -5 -24 -10 -50 -10 -35 0 -47 -4 -50 -16 -4 -21 25 -29 103 -29
73 0 91 9 76 37 -13 26 -6 33 35 33 41 0 70 -25 87 -75 14 -44 18 -45 89 -18
88 33 163 -3 353 -171 159 -141 181 -149 95 -34 -51 67 -107 119 -192 176 -75
51 -137 73 -220 79 -69 5 -78 8 -97 34 -32 43 -127 68 -301 80 -178 12 -232
22 -316 60 -67 31 -143 47 -157 33z"/>
<path d="M3045 5860 c-10 -11 -15 -23 -11 -27 8 -9 76 24 76 37 0 18 -46 11
-65 -10z"/>
<path d="M3800 5559 c0 -5 42 -30 94 -55 153 -72 156 -50 4 27 -81 41 -98 46
-98 28z"/>
<path d="M4573 5539 c-5 -16 -11 -19 -32 -14 l-26 7 24 -26 c30 -32 41 -32 70
-2 20 22 21 25 6 40 -22 22 -36 20 -42 -5z"/>
<path d="M4799 5356 c-12 -26 -7 -56 10 -56 18 0 42 33 39 54 -4 31 -36 32
-49 2z"/>
<path d="M5254 5235 c-4 -9 -2 -33 5 -53 16 -55 77 -157 91 -154 6 1 26 -7 45
-18 39 -24 45 -25 45 -3 0 9 -20 35 -44 58 -32 29 -47 53 -55 85 -6 25 -17 56
-24 70 -15 30 -54 39 -63 15z"/>
<path d="M5292 4910 c-13 -6 -22 -16 -20 -22 6 -18 45 -22 79 -8 30 13 39 30
17 30 -7 0 -22 2 -33 5 -11 2 -31 0 -43 -5z"/>
<path d="M5180 4839 c0 -16 20 -49 29 -49 13 0 21 27 15 45 -7 17 -44 21 -44
4z"/>
<path d="M5140 4755 c0 -3 12 -17 28 -30 l27 -23 -49 -96 c-39 -75 -51 -109
-54 -156 -4 -50 -2 -60 12 -60 9 0 18 11 21 28 15 69 27 101 59 150 19 29 37
68 40 86 7 35 -7 85 -27 98 -14 9 -57 11 -57 3z"/>
<path d="M3590 4640 c-30 -11 -56 -20 -57 -20 -2 0 12 -14 31 -30 19 -17 40
-47 47 -67 14 -45 26 -29 34 47 4 30 9 63 11 73 7 21 2 21 -66 -3z"/>
<path d="M4850 4578 c-48 -25 -56 -41 -24 -46 21 -3 84 41 84 59 0 14 -12 11
-60 -13z"/>
<path d="M5237 4593 c-12 -11 -8 -36 9 -54 29 -32 56 -1 38 45 -6 16 -35 22
-47 9z"/>
<path d="M4789 4441 c-13 -10 -45 -28 -71 -39 -55 -24 -63 -51 -21 -73 62 -33
191 1 225 61 13 23 24 30 46 30 30 0 58 21 45 33 -3 4 -50 7 -103 7 -80 0
-102 -3 -121 -19z m91 -46 c0 -23 -46 -36 -119 -33 l-66 3 80 22 c99 26 105
27 105 8z"/>
<path d="M4970 4340 c0 -5 18 -10 40 -10 22 0 40 5 40 10 0 6 -18 10 -40 10
-22 0 -40 -4 -40 -10z"/>
<path d="M4510 4307 c0 -24 79 -87 109 -87 21 0 11 20 -29 60 -39 39 -80 53
-80 27z"/>
<path d="M5170 4288 c-44 -33 -61 -58 -40 -58 15 0 96 77 89 85 -4 3 -26 -9
-49 -27z"/>
<path d="M4688 4220 c-10 -6 -18 -18 -18 -27 0 -13 9 -14 54 -9 49 7 54 5 70
-18 18 -28 53 -34 87 -16 33 18 23 36 -17 32 -26 -3 -41 1 -59 18 -26 25 -91
36 -117 20z"/>
<path d="M4786 2378 c-19 -62 -18 -129 1 -136 25 -8 36 43 26 120 l-9 73 -18
-57z"/>
<path d="M4140 2254 c0 -21 4 -33 10 -29 6 3 10 19 10 36 0 16 -4 29 -10 29
-5 0 -10 -16 -10 -36z"/>
<path d="M5023 1995 c-3 -41 3 -42 57 -15 48 25 50 35 9 44 -57 11 -64 8 -66
-29z"/>
<path d="M4410 1985 c-169 -49 -406 -133 -474 -167 -71 -36 -64 -53 15 -38 29
6 98 14 153 19 54 5 100 12 103 15 3 3 6 22 7 43 l1 37 100 13 c55 6 112 14
128 17 38 8 34 -7 -14 -45 -24 -19 -37 -35 -31 -41 5 -5 69 -10 143 -11 130
-2 136 -1 194 27 l60 29 -70 16 c-38 8 -98 15 -133 16 -53 0 -62 3 -62 18 0
11 -9 21 -20 24 -26 7 -25 17 3 36 41 28 13 25 -103 -8z m245 -105 c-3 -5 -17
-10 -30 -10 -13 0 -27 5 -30 10 -4 6 8 10 30 10 22 0 34 -4 30 -10z"/>
<path d="M1991 1883 c-36 -44 -38 -58 -11 -73 30 -16 60 19 60 70 0 22 -4 40
-9 40 -5 0 -23 -17 -40 -37z"/>
<path d="M2950 1850 c0 -6 30 -10 71 -10 44 0 68 4 64 10 -3 6 -35 10 -71 10
-36 0 -64 -4 -64 -10z"/>
<path d="M2645 1820 c-13 -6 6 -9 60 -9 55 -1 75 2 65 9 -18 12 -98 12 -125 0z"/>
<path d="M3770 1775 l-65 -23 56 -1 c42 -1 60 3 72 17 35 38 26 39 -63 7z"/>
<path d="M4245 1768 c-24 -28 -25 -32 -10 -41 29 -16 177 -4 209 16 27 18 27
19 10 38 -12 13 -28 19 -48 17 -25 -2 -31 -7 -29 -25 3 -28 4 -28 -37 2 -44
33 -63 32 -95 -7z"/>
<path d="M2323 1783 c26 -2 67 -2 90 0 23 2 2 3 -48 3 -49 0 -68 -1 -42 -3z"/>
<path d="M2068 1753 c23 -2 59 -2 80 0 20 2 1 4 -43 4 -44 0 -61 -2 -37 -4z"/>
<path d="M1890 1600 c20 -13 67 -13 75 0 4 6 -12 10 -42 10 -35 0 -44 -3 -33
-10z"/>
<path d="M3485 1466 c-16 -24 -18 -24 -57 -10 -49 17 -75 18 -117 3 -42 -15
-39 -29 7 -29 20 0 94 -7 163 -15 173 -20 285 -23 300 -8 19 19 8 24 -83 39
-46 8 -105 21 -132 29 -64 19 -63 19 -81 -9z"/>
<path d="M5926 5424 c-44 -13 -81 -26 -83 -28 -3 -2 13 -27 35 -55 l40 -50 42
72 c53 89 52 87 48 86 -2 0 -39 -11 -82 -25z"/>
<path d="M801 5152 c2 -5 26 -38 53 -73 l48 -62 33 54 c19 29 32 56 29 60 -2
3 -27 9 -55 13 -29 4 -65 10 -82 13 -19 4 -28 2 -26 -5z"/>
<path d="M448 4200 c-82 -24 -128 -82 -128 -159 0 -127 136 -208 250 -149 25
13 55 38 67 57 29 43 31 117 4 169 -31 60 -128 102 -193 82z"/>
<path d="M6577 4083 c-15 -4 -17 -11 -11 -36 10 -49 23 -67 47 -67 41 0 59 22
55 65 -3 38 -5 40 -38 42 -19 0 -43 -1 -53 -4z"/>
<path d="M973 1989 c-18 -12 -33 -25 -33 -29 0 -17 52 -70 69 -70 20 0 51 30
51 49 0 21 -30 71 -43 71 -6 0 -27 -10 -44 -21z"/>
<path d="M1193 1562 c-39 -15 -74 -29 -77 -32 -2 -3 14 -27 37 -53 l42 -47 42
80 c24 44 40 80 35 79 -4 0 -39 -12 -79 -27z"/>
<path d="M1963 1000 c-13 -21 -23 -41 -23 -44 0 -10 58 -36 79 -36 25 0 50 35
43 62 -4 17 -55 58 -72 58 -3 0 -15 -18 -27 -40z"/>
<path d="M2334 821 c-132 -60 -139 -247 -11 -312 103 -53 224 15 242 136 12
76 -39 159 -114 184 -46 15 -69 14 -117 -8z"/>
<path d="M2922 552 c-23 -39 -42 -75 -42 -79 0 -5 28 -13 61 -19 l60 -11 -6
36 c-3 20 -11 61 -18 91 l-12 54 -43 -72z"/>
<path d="M3360 460 l0 -162 69 4 c77 4 104 20 127 75 21 48 18 132 -6 170 -28
46 -61 64 -130 70 l-60 6 0 -163z"/>
</g>
</svg>
