<?xml version="1.0" encoding="utf-8"?>
<!-- Generator: Adobe Illustrator 23.0.2, SVG Export Plug-In . SVG Version: 6.00 Build 0)  -->
<svg version="1.1" xmlns="http://www.w3.org/2000/svg" xmlns:xlink="http://www.w3.org/1999/xlink" x="0px" y="0px"
	 viewBox="0 0 225 225" style="enable-background:new 0 0 225 225;" xml:space="preserve">
<style type="text/css">
	.st0{fill:#FFFFFF;}
	.st1{fill:#D30000;}
	.st2{display:none;}
	.st3{display:inline;fill:none;}
	.st4{display:inline;}
	.st5{font-family:'ArialMT';}
	.st6{font-size:12px;}
	.st7{display:inline;fill:#FFFFFF;}
	.st8{font-family:'CenturyGothic-Bold';}
	.st9{font-size:22.4px;}
	.st10{font-size:22.2491px;}
</style>
<g id="Layer_1">
	<g id="Layer_7">
		<circle class="st0" cx="112.1" cy="111.3" r="109.2"/>
	</g>
	<g>
		<path d="M107,33.4c-1.9,0.5-4.2,1.8-5,2.8s-2.6,1.9-4,2c-1.4,0.2-3.4,1.1-4.4,2c-1.1,1-2.4,1.8-2.9,1.8c-1.7,0,0.1,10.6,2.6,15.6
			l2.5,5L93,64.2c-2.7,1.5-2.9,2-3.5,11.8c-0.8,10.2-0.8,10.2-3.7,11.2c-2.2,0.8-2.6,1.3-1.6,1.9c1.8,1.2,4.1,1.1,3.3-0.1
			c-0.3-0.6,0.1-0.7,0.9-0.4c0.9,0.3,1.6,1.4,1.6,2.3s0.7,2.7,1.7,4c1.5,2.2,1.5,2.6-0.5,6.5c-1.1,2.2-3.7,7.7-5.8,12
			c-3.4,7.2-3.8,7.7-5.1,6.1c-1-1.4-1.3-1.5-1.3-0.4c0,2-6.9,3.9-14.7,4l-6.3,0.2v3.3c0,1.8-0.5,3.4-1.1,3.6
			c-0.5,0.2-1.3,2.2-1.6,4.6c-0.5,4-0.4,4.2,2.1,4.2c3.1,0,3.2,1.1,1.5,13.6c-1,7-1.5,8.3-3.8,9.7c-2.2,1.4-2.3,1.7-0.7,1.7
			c1.9,0,1.9,0,0.1,1.4c-1.8,1.3-1.8,1.4,0.2,2.4c1.1,0.6,2.2,0.9,2.5,0.7c0.2-0.3,2.3,0.4,4.6,1.5c4.3,2.1,14.2,2.8,14.2,1
			c0-0.5-3-1-6.7-1.2c-6.1-0.3-6.8-0.5-7.1-2.4c-0.2-1.4,0.7-3,2.6-4.6c1.5-1.3,2.7-3,2.4-3.8c-0.3-1.3-0.2-1.3,0.6-0.1
			c0.8,1.1,1.1,1,1.6-0.7c0.4-1.1,1.3-2.6,2.1-3.2c1.2-1,1.2-0.6-0.1,1.9c-0.8,1.7-2.3,3.6-3.2,4.3c-1.8,1.4-2.9,4.8-1.5,4.8
			c0.4,0,6.2-7.7,12.8-17c6.6-9.4,12.1-17,12.3-17c0.2,0,0,0.6-0.4,1.2c-13.5,21.9-19.7,31.4-21.2,32c-1,0.4,0.4,0.7,3.3,0.7
			c3.1,0,4.5-0.3,3.7-0.8c-1.1-0.6,0.5-4,6.7-14.6c4.4-7.6,8.3-14.1,8.7-14.4c0.3-0.3-2.6,5.8-6.5,13.6c-3.9,7.9-7.1,14.6-7.1,14.9
			c0,0.7,16.9-0.4,20.6-1.2c1.8-0.5,2.7-2.6,5.5-12c1.8-6.2,3.5-11.2,3.7-10.9c0.6,0.5-3.6,18.5-4.9,20.7c-0.8,1.6-0.4,1.8,3.3,1.8
			h4.3l0.2-4.3c0.2-2.3,0.9-6.7,1.6-9.7l1.4-5.5v8.5c0,5.2-0.3,7.7-0.8,6.5c-0.7-1.8-0.8-1.7-0.8,0.6c-0.1,2.4,0.2,2.6,4.4,2.5
			c7.4-0.2,5.1,1.2-3.2,1.9c-9.7,0.8-11.9,1.2-6.9,1.4c6.2,0.2,3.7,1-5,1.6c-4.3,0.4-8.3,1-8.8,1.6c-0.6,0.5-3.5,0.9-6.5,1
			c-4.3,0-5.1,0.3-3.6,1c1.4,0.6,0.7,0.7-2.5,0.3c-3-0.3-4-0.2-3.1,0.4c1.1,0.8,1,1.1-0.5,1.5c-1.6,0.4-1.6,0.5,0.4,0.6
			c1.2,0,2.2,0.6,2.2,1.2c0,0.7-0.7,0.8-1.7,0.4c-2.2-1-12.3-1.2-12.3-0.3c0,0.6,11.6,2.3,13.7,2c0.6-0.2,1.4,0.2,1.8,0.8
			c0.3,0.5-0.1,1-0.9,1c-0.9,0-1.6,0.4-1.6,1s0.9,0.6,2.5,0c1.4-0.5,2.5-0.6,2.5-0.2c0,0.5-1.2,1.3-2.7,1.9c-2.5,0.9-2.3,1,1.8,0.7
			c2.6-0.2,5.9-0.8,7.4-1.4c1.6-0.6,4.8-1,7.1-0.9c2.4,0.2,4.7,0,5-0.4c0.4-0.4-0.6-0.7-2.2-0.8c-2.3-0.1-2-0.3,1.6-1.1
			c2.5-0.6,4.8-1.5,5.2-2.2c0.5-0.8,0.8-0.7,0.8,0.3c0,1.1,0.3,1.1,1.7,0c1.5-1.2,1.6-1.2,1.1,0.2c-0.6,1.4-0.1,1.5,3,0.8
			c2-0.4,6.2-1,9.2-1.2c7.3-0.6,9.4-1.5,7.9-3.3c-1.5-1.9-6.4-1.8-8.3,0.1c-1.7,1.7-3,2-2,0.4c0.4-0.8-0.4-0.9-2.7-0.4
			c-3.3,0.7-3.3,0.6-1.4-1c1.8-1.5,1.8-1.6,0.2-1.1c-1,0.3-2.3,0.6-2.8,0.6c-0.6,0-0.8,0.4-0.5,0.9s-0.3,1.1-1.4,1.4
			s-1.8,0.1-1.4-0.4c0.7-1.1,0.1-1.1-3,0.1c-1.4,0.5-2.6,0.6-2.6,0.2c0-0.5,2.4-1.4,5.3-2.1c2.8-0.8,5.7-1.7,6.2-2.1
			c0.6-0.4,3.2-1.3,5.9-1.9c2.7-0.7,6.5-1.8,8.3-2.6c3.1-1.3,3.3-1.7,2.3-3.6c-0.8-1.5-0.9-1.9-0.1-1.5c1.8,1.2,1.2-0.9-0.9-3.2
			c-1.2-1.2-1.6-2.2-1-2.2c0.5,0,1-0.6,1-1.4c0-0.7,1.4-3,3-5.1c3.1-3.9,3.8-8.1,2-11.5c-0.9-1.7-0.7-1.7,1.8-0.8
			c2.6,1,5.2,4.7,5.2,7.5c0,0.7-0.6,1-1.3,0.7c-0.8-0.3-3.1,1.1-5.2,3c-2.8,2.6-3.6,3.9-3,5.3c1.2,2.7,1.3,5.6,0.4,8
			c-1.1,3,1,3.5,6.6,1.6c3.7-1.2,4.5-1.9,4-3.4c-0.4-1.3-0.2-1.9,0.9-1.9c1.1,0,1.6-0.9,1.6-3c0-1.7-0.4-3-1-3c-0.5,0-1,0.9-1,1.9
			c0,2.3-1.6,3.6-2.5,2.1c-0.9-1.4,1.4-8.1,2.6-7.4c0.5,0.3,0.6,1,0.3,1.6c-0.4,0.7-0.2,0.8,0.4,0.4c0.7-0.4,1.2-1.3,1.2-2.1
			c0-0.7,0.6-1.5,1.3-1.8c0.6-0.2,0-0.8-1.4-1.2c-2.3-0.6-2.6-1-2-3.3c0.4-1.4,1.3-2.8,2-3c1-0.3,1.2,0.2,0.7,2.2
			c-0.6,2.4-0.5,2.6,1.9,2l2.5-0.6l-2,4.3c-1.1,2.4-2,5.7-2,7.2c0,1.6-0.5,3.8-1.1,4.9c-1,1.9-0.9,2,1.7,1.5l2.9-0.6l-2.9,1.3
			l-2.8,1.3l2.3,0.6c1.3,0.4,4.2,0.6,6.4,0.6c2.2-0.1,3.2-0.3,2.3-0.6c-2.7-0.7-2.1-2.1,1.2-2.8c1.6-0.4,3.2-1.1,3.5-1.6
			c0.8-1.3-0.6-1.1-5.3,0.5c-3.7,1.3-4.1,1.3-4.2-0.2c0-0.9-0.3-4.4-0.6-7.7c-0.4-5.5-0.3-5.8,1.1-4.1c1.1,1.4,1.5,1.6,1.5,0.5
			s0.2-1.1,0.9-0.1c0.8,1.4,0.6,6.1-0.5,9.5c-0.5,1.6-0.2,1.8,1.8,1.1c4.4-1.4,6.3-1.1,6.1,1.2c-0.2,1.4,0.4,2.4,1.7,2.7
			c1.1,0.3,2,0.1,2-0.4s-0.5-0.9-1.2-0.9c-0.6,0-0.8-0.3-0.5-0.6c0.4-0.4,1.3-0.1,2.1,0.5c1,0.8,1.6,0.9,2.1,0.1
			c0.3-0.5,0.2-1-0.3-1c-0.6,0-0.8-0.9-0.5-2.1c0.5-1.8,0.2-1.9-2.3-1.4c-2.6,0.5-2.6,0.4-0.6-0.4c1.2-0.6,2.8-0.8,3.6-0.5
			s1.7,0.1,2.1-0.5c0.3-0.6,0.2-1.1-0.3-1.1c-1.2,0-2.2-3.6-1.3-4.5c0.3-0.4,0.7-1.1,0.7-1.6c0.1-0.5,0.2-1,0.4-1.2
			c0.6-0.7,0.5-5.9-0.2-6.3c-0.4-0.3-0.9-4.2-0.9-8.7c-0.1-4.5-0.4-7.2-0.6-5.9c-0.3,1.4-0.9,2-1.6,1.5c-0.9-0.5-0.9-0.3-0.1,0.8
			c0.7,0.8,1.4,4.2,1.6,7.6c0.4,6,0.3,6.3-1.8,6.3c-2.6,0-4.2-1.8-2.2-2.5c2-0.8,1.1-15.3-1.1-18c-1.5-1.8-1.5-1.9,0.2-0.6
			c0.9,0.7,1.7,1,1.7,0.6s0.6-0.3,1.3,0.3c1,0.8,1.3,0.6,1.3-0.8c0-1-0.5-1.6-1-1.3c-0.5,0.4-0.7-0.1-0.3-1c0.5-1.2-0.1-1.9-1.8-2.3
			c-1.4-0.3-2.5-1.3-2.5-2.1c0-0.8-0.7-2.8-1.6-4.4c-0.8-1.7-1.4-3.3-1.1-3.5c0.2-0.3,1.1,0.9,1.9,2.5c0.9,2,1.8,2.7,2.7,2.2
			c1-0.7,1-1.5-0.3-4c-0.9-1.7-2.1-2.9-2.6-2.6c-0.6,0.3-0.7,0-0.4-0.8c0.5-1.5-5.1-2.7-12.4-2.7c-4.2,0-10.5-5-11-8.9
			c-0.2-1.4-0.7-3.2-1.2-4c-0.7-1.3-1-1-1.5,1.2c-0.4,1.5-1.1,2.7-1.6,2.7s-0.6,0.7-0.3,1.5c0.8,1.9-0.5,1.9-2.6,0
			c-2.2-2-8-3.7-8-2.4c0,0.5,0.5,0.9,1.2,0.9c0.6,0,0.8,0.3,0.5,0.7c-0.4,0.3-1.9-0.4-3.3-1.8c-1.9-1.7-2.8-2-3.1-1.1
			c-0.4,1-0.8,1-1.9,0.1s-1.4-0.8-1.4,0.5c0,0.9-0.4,1.6-0.9,1.6s-0.8-0.8-0.7-1.7c0.1-1.4-0.6-1.7-3.8-1.4
			c-3.3,0.2-3.7,0.1-2.5-1.2c1-1,1.9-1.2,3.2-0.6c1.3,0.8,1.7,0.6,1.7-0.8c0.1-1,0.2-4.4,0.4-7.6c0.1-3.2-0.1-6-0.5-6.3
			c-0.5-0.3-0.6,0.2-0.3,1c0.3,0.9,0.1,1.6-0.4,1.6c-0.6,0-1.4-1.6-1.8-3.5c-0.5-2.9-1.1-3.5-3.3-3.6c-2.5-0.2-2.5-0.2-0.2-0.6
			c1.6-0.3,3.2,0.4,5.2,2.3l2.9,2.8v-2.5c0-1.3,0.5-3.1,1-3.9c0.7-1,0.8-0.3,0.5,2.5l-0.5,4l1.1-3.5c1.8-6.2,2.1-8.7,1-9.4
			c-0.6-0.4-1.1-1.5-1.1-2.4c0.1-1.5,0.2-1.5,1.5,0.1c1.3,1.8,1.4,1.6,2.4-1.9c0.6-2.1,0.8-4,0.6-4.3c-0.3-0.2-0.5,0-0.5,0.6
			c0,0.5-0.7,1-1.5,1c-2.2,0-1.8-1.3,0.7-3.1c1.2-0.9,1.7-1.6,1-1.6c-0.6,0-1.2-0.9-1.2-2c0-4.2,7.1-1.5,9.9,3.8
			c1.7,3.2,0.7,6.5-5,16.6c-2.9,5-5.4,9.5-5.7,10c-0.3,0.5,0,0.6,0.6,0.2c0.7-0.4,1.2-0.1,1.2,0.6c0,2.1,6.2,7.2,9,7.5
			c1.4,0.2,3.7,0.3,5.3,0.3c2,0,3,0.6,3.7,2.5c1.2,3.3,4.5,3.3,8.5,0c3.2-2.6,2.4-3.5-0.9-1c-2.3,1.7-6.6,2-6.6,0.4
			c0-0.5,0.4-0.8,1-0.4c0.5,0.3,2.5-0.1,4.4-0.9s4.3-1.2,5.4-0.9c1.2,0.3,2.2-0.2,2.6-1.2c0.5-1.4,0.2-1.6-2.1-1
			c-2.3,0.5-2.5,0.4-1.4-0.9c0.8-0.9,2-1.6,2.8-1.6c2,0,11.3-4.3,11.3-5.2c0-0.8-3.2,0.2-4,1.2c-0.8,1.1-7.2,3-8.1,2.5
			c-0.4-0.3-1.7,0.3-2.9,1.5c-1.1,1.1-3,2-4.1,2c-1.2,0-2.7,0.6-3.3,1.4c-0.9,1.1-1.5,1.1-3.6,0l-2.5-1.4h2.8c1.6,0,2.7-0.5,2.7-1.4
			c0-0.8,1.1-1.7,2.5-2c1.4-0.4,2.5-1.2,2.5-1.8c0-0.9-0.3-0.9-1.2,0c-0.7,0.7-1.9,1.2-2.7,1.2c-1.2,0-1-0.5,0.7-2.2
			c1.5-1.6,2.5-1.9,3.2-1.2c1.7,1.7,11.2,0.5,13.1-1.6c1-1.2,2.4-1.7,3.7-1.3c1.1,0.2,2.8,0.1,3.7-0.5c1.6-0.8,1.6-1,0.1-1.5
			c-0.9-0.4-1.6-0.2-1.6,0.3c0,0.6-0.7,1-1.6,1c-0.8,0-1.3-0.4-1-0.9s0-1.1-0.8-1.4c-0.9-0.3-1.2-1.5-0.9-3.1
			c0.3-1.5,0.1-2.6-0.6-2.6c-0.6,0-1.1,0.4-1.1,1c0,0.5-0.7,1-1.6,1c-0.8,0-1.2,0.5-0.9,1c0.4,0.6,1.1,0.8,1.6,0.4
			c0.7-0.4,0.9,0.7,0.7,2.7c-0.2,1.8-0.9,3.5-1.7,3.7c-1,0.3-1.2,0-0.8-1.1c0.3-0.8-0.3-2.3-1.4-3.3c-1.6-1.5-1.9-1.5-1.9-0.1
			c0,1-1.3,1.7-4.1,2.2c-4.3,0.7-6.8-0.2-3.1-1.2c1.2-0.3,2.2-0.9,2.2-1.4s0.7-0.9,1.5-0.9s1.5-0.4,1.5-1c0-0.5,0.6-0.7,1.4-0.4
			c0.8,0.3,1.7,0,2.2-0.7c0.4-0.8,0.3-1-0.4-0.5c-1.6,0.9-1.5-0.7,0-2.2c0.6-0.6,0.9-1.5,0.5-1.8c-0.7-0.7-3.7,2-3.7,3.4
			c0,0.5-1.7,2-3.7,3.4c-3.7,2.4-10.5,3.1-12.1,1.2c-0.4-0.4,0.1-0.4,1.1-0.1c0.9,0.4,1.7,0.2,1.7-0.2c0-0.5,1.4-1.4,3.1-2
			c1.8-0.6,2.8-1.5,2.4-2.2c-0.5-0.8-0.1-0.7,1.5,0.1c2,1,2.6,0.9,4.9-1.5l2.6-2.6l-3,0.3c-2,0.2-2.9,0.8-2.7,1.7
			c0.3,1.2,0,1.2-1.2,0.1c-1.7-1.3-2.2-2.5-0.8-1.6c0.4,0.2,1.3-0.4,2-1.4c0.9-1.4,0.8-2.1-0.4-3.1s-1.3-0.9-0.9,0.3
			c0.4,1.1-0.6,1.7-4,2.5c-4.3,1-7.6,0.1-3.6-1c1.1-0.2,2.4-1.5,3.1-2.7c1.1-2,1-2.1-1.2-1.5l-2.3,0.6L139,49l2.5-2.1l-2.5,0.6
			c-2.3,0.7-2.4,0.6-0.6-0.7c1.7-1.3,1.4-1.5-3.5-1.5c-3.4-0.1-5.7-0.6-6.3-1.5c-1.5-2-5-3.8-7.4-3.8c-1.1,0-2.5-0.7-3.2-1.5
			c-0.7-0.9-1.8-1.4-2.5-1.1c-0.6,0.2-2.9-0.5-5.1-1.5l-3.9-2l6,0.5c3.3,0.3,7.4,0.7,9,1c1.7,0.4,2.3,0.3,1.5,0s-2.4-0.9-3.5-1.4
			C116.1,32.5,110.6,32.3,107,33.4z M138,53.2c0,0.5-0.3,0.7-0.7,0.6c-0.5-0.1-2.1,0.4-3.7,1.1c-1.6,0.6-3.1,1-3.3,0.7
			c-1-0.9,0.9-4.5,2.5-4.8C134.6,50.4,138,52,138,53.2z M105.3,55.7c-0.7,0.2-1.9,0.2-2.5,0c-0.7-0.3-0.2-0.5,1.2-0.5
			S105.9,55.4,105.3,55.7z M104.7,60.2c-0.3,0.8-0.6,0.5-0.6-0.6c-0.1-1.1,0.2-1.7,0.5-1.3C104.9,58.6,105,59.5,104.7,60.2z
			 M136.9,59.4c1,1.2,0.8,1.3-0.8,0.9c-1.2-0.3-2.1-0.9-2.1-1.4C134,57.5,135.6,57.8,136.9,59.4z M141.2,59.2
			c-0.9,0.9-1.5,0.9-2.4,0S138.1,58,140,58S142.1,58.3,141.2,59.2z M131.7,64.5c-1.9,1.9-2.4,1.9-2.4,0c0-0.8,0.6-1.5,1.4-1.5
			c0.7,0,1.3-0.6,1.4-1.3c0-0.9,0.2-0.9,0.6,0C132.9,62.4,132.5,63.7,131.7,64.5z M102.5,67.2c1.4,0.6,2.5,1.8,2.5,2.5
			c0,0.8,0.4,1.1,1,0.8c0.5-0.3,0.8,0,0.6,0.7c-0.3,0.7-0.7,2.6-1,4.3c-0.5,2.2-0.4,2.6,0.4,1.5c0.8-1.3,1-1.3,1,0.1
			c0,1.6-2.7,4.5-3.9,4.3c-0.3-0.1-1.6,0.2-2.9,0.7C97,83.3,97,83.4,97,80c0-1.7,0.5-3,1-3c1.8,0,1.1-1.8-1-2.5
			c-3.6-1.1-2.1-8.5,1.7-8.5C99.3,66,101.1,66.5,102.5,67.2z M125,70.1c0,0.5-0.9,0.9-2,0.9c-2.2,0-2.3-0.1-1.4-2.4
			c0.5-1.3,0.9-1.4,2-0.5C124.4,68.7,125,69.6,125,70.1z M139.5,68c-0.6,1,0.7,1.4,3.4,1c3.5-0.4-1.7,2.7-5.4,3.4
			c-3.7,0.6-3.9,0.5-2.1-0.9c1.1-0.8,2.3-1.5,2.8-1.5c0.4,0,0.7-0.3,0.7-0.8c-0.2-1.2,0.1-2.2,0.7-2.2C139.9,67,139.8,67.4,139.5,68
			z M152.9,69.4c-1.4,1.4-6.9,3.1-6.9,2.1c0-0.7,7.4-4.2,7.9-3.8C154.2,67.9,153.7,68.7,152.9,69.4z M95.1,74.4
			c1.2,1.3,1.2,4.9-0.1,4.1c-0.5-0.3-1,0-1,0.9c0,0.8,0.6,1.7,1.3,1.9c0.9,0.4,0.9,0.6,0,0.6C93.8,82,91,78.1,91,75.8
			c0-0.9,0.6-3,1.3-4.5l1.2-2.7l0.3,2.4C94,72.4,94.6,73.9,95.1,74.4z M131.5,72c0.3,0.5-0.1,1-0.9,1c-0.9,0-1.6,0.5-1.6,1.1
			c0,0.5-0.4,0.7-1,0.4c-0.6-0.4-0.5-1.1,0.3-2C129.7,70.8,130.7,70.7,131.5,72z M108.9,77.5v2l-0.9-2c-0.5-1.1-0.9-2.9-0.9-4v-2
			l0.9,2C108.5,74.6,108.9,76.4,108.9,77.5z M126.3,77.5c2.3,3.2,1.5,3.2-1.7,0c-1.4-1.4-2-2.5-1.3-2.5S125.3,76.2,126.3,77.5z
			 M134.5,77c0.3,0.5,0.1,1-0.4,1c-0.6,0-1.1-0.5-1.1-1c0-0.6,0.2-1,0.4-1C133.7,76,134.2,76.4,134.5,77z M132.8,79.8
			c0.6,1.8-1.5,1.4-2.2-0.4c-0.4-1-0.1-1.4,0.6-1.2C131.8,78.4,132.6,79.2,132.8,79.8z M119.7,89.2c-0.3,0.8-0.6,0.5-0.6-0.6
			c-0.1-1.1,0.2-1.7,0.5-1.3C119.9,87.6,120,88.5,119.7,89.2z M102.4,91.5c0.4,1.1-0.3,1.9-2,2.5c-1.4,0.6-2.6,1-2.7,1
			s-0.3-1.1-0.3-2.5c-0.2-2,0.3-2.5,2.1-2.5C100.8,90,102.1,90.7,102.4,91.5z M114.7,91.7c0.1,1.2-0.6,1.8-2.3,1.9l-2.5,0.2l2.2-1.9
			C114.8,89.6,114.5,89.6,114.7,91.7z M130,91.5c0,0.8-0.4,1.5-1,1.5c-0.5,0-0.7-0.7-0.4-1.5c0.4-0.8,0.8-1.5,1-1.5
			S130,90.7,130,91.5z M94.5,91.9c1,1.7-1.2,2.1-2.5,0.6c-1-1.2-1-1.5,0.3-1.5C93.2,91,94.1,91.4,94.5,91.9z M130.1,94.5
			c2-1.3,7-1.5,8.8-0.5c1.2,0.8,0.5,1-2.6,0.6c-3-0.4-4.1-0.2-3.8,0.7c0.7,2.1,1.4,6.7,0.9,6.7c-1,0-4.3-3.4-3.9-4.1
			c0.3-0.4-0.2-1.3-1.1-2c-1.4-1.1-1.6-1-1.4,0.6c0.3,3.1,0.1,4.9-0.6,4.2c-0.4-0.4-0.7-2.4-0.8-4.6c-0.1-3.7,0-3.8,1.6-2.4
			C128.1,94.5,129.4,94.9,130.1,94.5z M118.1,96.7c1.3,1.6,1.2,1.7-0.3,0.4c-1-0.7-1.8-1.5-1.8-1.7C116,94.6,116.8,95.1,118.1,96.7z
			 M143,101.3c0,2.4-0.3,2.7-1.4,1.8c-0.9-0.8-1.6-0.8-2-0.2c-1,1.5-3.6,0.2-3.6-1.8c0-1.3,0.2-1.3,0.9-0.2c0.7,1.1,1.1,0.9,2-0.8
			c0.8-1.4,0.8-2.1,0.1-2.1c-0.5,0-1-0.4-1-1s1-0.5,2.5,0.2C142.3,98,143,99.1,143,101.3z M123.8,100.1c1.2,1.8,1.1,1.9-0.6,1
			c-1.1-0.6-2.2-0.7-2.6-0.4c-0.3,0.3-0.6-0.1-0.6-1C120,97.3,122.3,97.6,123.8,100.1z M123.7,109.8c0.3,8.7-0.7,12.6-3.5,13
			c-1.1,0.2-2.4,1.2-2.7,2.3c-0.4,1.1-0.9,1.8-1.2,1.6c-0.2-0.3,0.3-1.9,1.1-3.6c1-1.8,1.4-4.3,1.1-5.8c-0.4-1.9-0.3-2.2,0.3-1
			c0.7,1.6,1,1.4,2.4-1.5c1.6-3.4,1.6-5.7,0.3-11.3c-0.6-2.5-0.5-2.8,0.6-1.7C122.9,102.6,123.6,105.7,123.7,109.8z M106.4,104.6
			c2.4,2.3,2,7-0.6,8.8c-6.4,4.5-13.3-2.9-7.8-8.4C100.4,102.6,104.3,102.4,106.4,104.6z M133,109.1c1.2,2.2,0.6,3.9-1.5,3.9
			c-0.7,0-1.9,1.3-2.6,2.9c-0.9,2-1.6,2.6-2.1,1.8c-0.5-0.8-0.8-0.4-0.8,1c0,1.3-0.5,2.3-1,2.3c-0.6,0-0.7-1.1-0.3-2.8
			c0.4-1.5,0.7-4.1,0.6-5.7c-0.1-1.7,0-4.5,0.3-6.3l0.5-3.3l3,2.1C130.7,106.2,132.5,108,133,109.1z M132.6,103.9
			c-0.4,0.5,0,1.2,0.6,1.4c0.8,0.3,0.6,0.6-0.4,0.6c-1.8,0.1-2.4-1-1.1-2.2C132.6,102.7,133.2,102.9,132.6,103.9z M110.8,109.1
			c-0.3,3.3-0.4,3.3-0.8-0.8c-0.3-2.3-0.2-3.9,0.3-3.4S111,107.3,110.8,109.1z M114,108.8c0,3.8-2.2,8.2-4.2,8.2
			c-0.6,0-0.3-0.9,0.7-2c1.2-1.3,1.8-3.5,1.7-6.5c0-2.5,0.4-4.3,0.9-3.9C113.6,104.9,114,106.8,114,108.8z M138,106.1
			c0,0.5-0.4,0.9-1,0.9c-0.5,0-1-0.7-1-1.6c0-0.8,0.5-1.2,1-0.9C137.6,104.8,138,105.5,138,106.1z M143.8,108.4c0.6,2,1.5,3.1,2.5,3
			c0.9-0.1,1.4,0.2,1.1,0.8c-0.3,0.5-0.1,1.4,0.4,2.1s1.4,2.6,2,4.4c0.9,2.8,0.8,3.1-0.8,2.8c-3.8-0.7-6.1-2.9-5.5-5.3
			c0.4-1.5,0.1-2.2-0.9-2.2c-0.9,0-2-0.9-2.6-1.9c-1.4-2.8-1.3-3.6,0.5-2.1c0.8,0.7,1.3,1.6,1,1.9c-0.2,0.4,0.2,0.8,1,0.8
			s1.5-0.4,1.5-0.9c0-0.4-0.5-0.8-1.1-0.8c-0.5,0-0.8-0.4-0.4-0.9c0.3-0.5-0.4-1.2-1.5-1.6c-1.1-0.3-2-1.5-2-2.5
			C139,102.9,142.9,104.8,143.8,108.4z M157,111.3v5.3l-3.5-0.4c-3.4-0.4-3.5-0.6-3.5-4.6c0-5,0.4-5.6,4.2-5.6
			C156.9,106,157,106.1,157,111.3z M138.5,110.7c0.2,0.7,0,1.3-0.6,1.3s-0.8,0.9-0.4,2c0.4,1.1,0.2,2-0.4,2c-0.6,0-1.1-0.7-1.1-1.5
			c0-0.9-0.7-2.9-1.5-4.4c-1.4-2.9-1.4-2.9,1-1.7C136.9,109,138.2,110.1,138.5,110.7z M90.3,119.8c1.4,1.7,0.7,2-2.9,1.5l-3.2-0.5
			l1.6-4l1.6-4.1l0.9,2.9C88.9,117.2,89.7,119.1,90.3,119.8z M131.5,116c-0.3,0.5-1.2,1-1.8,1c-0.7,0-0.6-0.4,0.3-1
			C131.9,114.8,132.3,114.8,131.5,116z M142.7,115.6c-0.3,0.3-1.2,0.4-1.9,0.1c-0.8-0.3-0.5-0.6,0.6-0.6
			C142.5,115,143.1,115.3,142.7,115.6z M162.4,118.6c0.3,0.9,0.6,3.1,0.6,5c0,3.2-0.1,3.4-2.1,2.3c-1.6-0.8-1.8-1.3-0.9-1.9
			c0.8-0.5,1-1.8,0.5-3.9C159.8,116.9,161.3,115.7,162.4,118.6z M138.2,119.5c0,0.5-0.5,1.1-1,1.3c-0.5,0.1-0.9-0.4-0.9-1.3
			s0.4-1.4,0.9-1.3C137.7,118.4,138.2,119,138.2,119.5z M130,120c0,0.5-0.8,1-1.7,1c-1.5,0-1.6-0.2-0.3-1
			C129.9,118.8,130,118.8,130,120z M133.7,120.6c-0.3,0.3-1.2,0.4-1.9,0.1c-0.8-0.3-0.5-0.6,0.6-0.6
			C133.5,120,134.1,120.3,133.7,120.6z M144.7,125.6c-0.7,0.7-5.7-1.8-5.7-2.8c0-0.5,1.4-0.1,3.1,0.7
			C143.8,124.4,145,125.4,144.7,125.6z M82,124.3c0,0.7-0.7,2.2-1.5,3.3c-1.6,2.1-2,0.8-0.5-1.6c0.8-1.2,0.2-1.6-2.8-2.1l-3.7-0.6
			l4.3-0.2C80.7,123,82,123.4,82,124.3z M73,127.2c0,1.8-0.4,2-3.7,1.4c-2.1-0.3-4.8-0.6-6-0.6c-1.5,0-2.3-0.6-2.3-1.8
			c0-1.5,0.8-1.7,6-1.4C72.3,125.1,73,125.4,73,127.2z M139.3,124.9c1.5,0.6,2.6,2,2.9,3.6c0.5,2.4,0.3,2.6-2.1,2
			c-1.4-0.3-3.7-0.7-5-1c-3.4-0.6-3.5-1.1-1.2-3.4C136.3,123.7,136.1,123.7,139.3,124.9z M164.7,132.2c-0.2,1.3-0.4,0.3-0.4-2.2
			s0.2-3.5,0.4-2.3C164.9,129,164.9,131,164.7,132.2z M97.7,128.6c-0.3,0.3-1.2,0.4-1.9,0.1c-0.8-0.3-0.5-0.6,0.6-0.6
			C97.5,128,98.1,128.3,97.7,128.6z M108.8,128.7c-1,0.2-2.8,0.2-4,0c-1.3-0.2-0.5-0.4,1.7-0.4C108.7,128.2,109.7,128.4,108.8,128.7
			z M148.4,132.5c0.4,1.6,0.3,2.3,0,1.5c-0.4-0.8-1.3-1.8-2-2.3c-0.7-0.4-1.1-1.4-0.7-2.3C146.5,127.4,147.7,128.8,148.4,132.5z
			 M143,133c0,0.5-0.9,0.6-2,0.3s-2-0.9-2-1.3c0-0.5,0.9-0.6,2-0.3S143,132.6,143,133z M134.8,136.2c-0.1,4.1-0.1,4.1-0.5,0.8
			c-0.3-1.9-1-3.8-1.6-4.2c-0.8-0.5-0.6-0.8,0.6-0.8C134.7,132,135,132.8,134.8,136.2z M83,141c-3.3,4.4-6.3,8-6.6,8s2.3-3.6,5.6-8
			c3.3-4.4,6.3-8,6.6-8C88.9,133,86.3,136.6,83,141z M103.4,147.6c-2,7.6-4,14.3-4.5,14.8c-2.4,2.7-1.6-1.6,2.7-14.8
			c2.7-8,5-14.4,5.1-14.2C106.9,133.6,105.4,140,103.4,147.6z M111.4,147.7c-2.8,14.3-3,15-4,14c-0.3-0.3,0.9-6.8,2.7-14.6
			c1.9-7.7,3.5-13.8,3.7-13.6C114,133.7,112.9,140,111.4,147.7z M116,140l-1.1,2.5l0.6-2.5c0.2-1.4,0.5-3.4,0.6-4.5
			c0.2-1.9,0.2-1.9,0.6,0C116.9,136.7,116.6,138.7,116,140z M89.9,150.1c-6.5,14.3-6.6,14.5-7.5,13.7c-0.3-0.3,2.5-6.7,6.3-14.1
			c3.7-7.5,6.9-13.5,7-13.3C95.9,136.5,93.3,142.7,89.9,150.1z M98.9,149.1c-2.3,6.8-4.5,12.8-5,13.3c-2.5,2.7-1.4-1.5,3.2-13.3
			c2.9-7.2,5.4-12.9,5.6-12.8C102.8,136.5,101.1,142.2,98.9,149.1z M93.9,150.9c-3,7.4-5.8,13.1-6.5,13.1c-0.9,0,0.3-3.5,3.3-9.8
			c2.5-5.3,5.2-11.4,6.1-13.5c0.8-2,1.7-3.6,1.9-3.3C98.9,137.6,96.7,143.6,93.9,150.9z M167.7,140c1.3,0,2.3,0.4,2.3,1
			c0,0.5-1.5,0.7-3.2,0.5c-1.8-0.3-2.7-0.2-1.9,0.1c1.1,0.5,1.1,0.8,0,1.5c-1.2,0.8-1.1,1.1,0.2,2.2c1,0.8,1.3,2,0.8,3.7l-0.7,2.5
			l-0.1-2.4c-0.1-1.6-0.5-2.1-1.5-1.8c-1.1,0.4-1.3,0.1-0.9-1c0.5-1.3,0.2-1.5-1.5-1.1c-1.2,0.4-2.2,0.3-2.2-0.1
			c0-0.4-1.1-1.3-2.5-1.9c-1.8-0.8-2.3-1.6-1.8-2.9c0.4-1,0.8-1.2,1.1-0.5c0.2,0.7,1,1.2,1.7,1.2s1.5,0.7,1.9,1.5
			c0.3,0.8,1.2,1.5,2.1,1.5c1.2,0,1.4-0.4,0.5-1.9c-0.5-1.1-1-2.7-1-3.6c0-1.5,0.2-1.5,2.2-0.1C164.4,139.3,166.5,140,167.7,140z
			 M130.7,140.6c-0.3,0.3-1.2,0.4-1.9,0.1c-0.8-0.3-0.5-0.6,0.6-0.6C130.5,140,131.1,140.3,130.7,140.6z M123.3,145.7
			c0.3,2.4,0.1,4.3-0.4,4.3s-0.9-2.1-0.9-4.7C122,139.7,122.5,139.9,123.3,145.7z M142.3,145.5c-0.3,0.9-0.8,1.4-1,1.1
			c-0.3-0.3-0.2-0.9,0.2-1.5C142.4,143.5,143,143.8,142.3,145.5z M76,150.4c0,0.2-0.8,1-1.7,1.7c-1.6,1.3-1.7,1.2-0.4-0.4
			S76,149.6,76,150.4z M121.7,157.7c-0.2,1.6-0.4,0.5-0.4-2.2c0-2.8,0.2-4,0.4-2.8C121.9,154,121.9,156.2,121.7,157.7z M127.4,154
			c-0.5,0.5-1.5,0.5-2.4,0c-0.8-0.5-1.1-1.2-0.7-1.7c0.5-0.4,1.2-0.1,1.7,0.7c0.8,1.2,1,1.1,1.1-0.5c0-1.2,0.3-1.5,0.6-0.7
			C128,152.6,127.8,153.6,127.4,154z M125.9,160.1c-2.2,1.4-2.9,1.1-2.9-1.1c0-1.8,0.3-1.9,2.1-0.9C126.8,159,127,159.4,125.9,160.1
			z M137.2,159.2c-0.7,0.7-1.2,0.8-1.2,0.2c0-1.4,1.2-2.6,1.9-1.9C138.1,157.8,137.8,158.6,137.2,159.2z M142,158c0,0.5-0.4,1-0.9,1
			c-0.6,0-1.3-0.5-1.6-1c-0.3-0.6,0.1-1,0.9-1C141.3,157,142,157.4,142,158z M129.9,162.2c0.1,0.5-0.3,0.8-0.7,0.8s-0.8-1.2-0.9-2.8
			c-0.1-2.3-0.1-2.4,0.7-0.7C129.5,160.6,129.9,161.8,129.9,162.2z M89,171c0,0.5,1.3,1,2.9,1c1.7,0,3.3-0.5,3.6-1
			c0.3-0.6,2.1-1,3.8-0.9c2.8,0,2.5,0.3-2.3,1.8c-4.4,1.4-5.1,1.8-3.5,2.4c1.1,0.5,2.1,0.4,2.3-0.2c0.2-0.5,0.9-0.8,1.7-0.5
			c0.7,0.3,1.6,0.1,2-0.5c0.3-0.6,1.6-1.1,2.7-1.1c3.3,0,1.4,1.1-6,3.7c-7.9,2.6-7.5,2.6-6.7,1.3c0.3-0.6-0.1-1-0.9-1
			c-0.9,0-1.6,0.9-1.6,2c0,2.5-1.6,2.6-2.3,0.1c-0.3-1.3,0.2-2.1,1.7-2.6c1.8-0.6,1.6-0.8-1.4-1.4c-3.2-0.6-3.3-0.8-1.3-1.5
			c1.3-0.4,2.8-0.4,3.5,0c0.9,0.6,0.9,0.3-0.1-0.9c-1.2-1.5-1.1-1.7,0.3-1.7C88.3,170,89,170.4,89,171z M127.8,172.1
			c-0.2,0.6-0.7,1-1.1,1c-0.4-0.1-1.4-0.1-2.3-0.1c-0.8,0-1.2-0.5-0.9-1C124.3,170.7,128.3,170.7,127.8,172.1z"/>
		<path d="M98.7,70.4c-0.4,1-0.5,2.1-0.2,2.4c0.9,0.9,1.7-0.6,1.3-2.5C99.5,68.6,99.4,68.6,98.7,70.4z"/>
		<path d="M101.2,76.2c-0.7,0.7-1.2,1.8-1.2,2.6c0,0.7-0.4,1-1,0.7c-0.5-0.3-1,0.1-1,0.9c0,1.3,0.4,1.4,2.4,0.4
			c2.8-1.2,3.8-2.9,2.7-4.6C102.6,75.3,102.1,75.3,101.2,76.2z"/>
		<path d="M121.2,116.5c-1.7,3.7-1.4,4.5,0.4,1.2c0.9-1.6,1.4-3.1,1.1-3.3C122.5,114.2,121.8,115.1,121.2,116.5z"/>
		<path d="M99,105.8c-4.8,3.9,0.3,10.2,5.5,6.8c2.9-1.9,3.2-4.7,0.9-7C103.4,103.5,101.7,103.6,99,105.8z M103.6,109.5
			c0.1,0.8-0.3,1.3-0.9,1.2c-1.9-0.3-2.7-2.1-1.4-2.9C102.6,107,103.3,107.5,103.6,109.5z"/>
		<path d="M136.4,127c0,1.1,0.4,2,0.8,2c0.4,0,0.8-0.9,0.8-2c0-1.1-0.4-2-0.8-2C136.8,125,136.4,125.9,136.4,127z"/>
		<path d="M126.3,35.7c0.9,0.2,1.7,0.9,1.7,1.4c0,0.6,0.4,0.8,0.8,0.5c0.5-0.3,2.1,0.2,3.7,1c1.5,0.8,3.6,1.2,4.6,0.9
			c2.2-0.7,7,0.5,6.4,1.6c-0.3,0.4-1.2,0.6-2,0.2c-0.8-0.3-1.5,0-1.5,0.6s1.6,1,3.5,0.9c2.5-0.1,3.2-0.4,2.5-1.3
			c-0.7-0.8-0.3-1.1,1.3-1c1.4,0.1,2.3,0.9,2.5,2.3c0.3,1.8,0.6,1.9,2.1,1c2.6-1.6,6.1-0.4,10.3,3.5c5.9,5.4,7.4,6.5,6.3,4.7
			c-3.4-5.6-10.6-10.6-14.7-10.1c-1.5,0.1-2.8-0.2-2.8-0.7c0-1.6-5.2-3.1-11.4-3.1c-3.5-0.1-6.9-0.7-8.2-1.6
			c-1.3-0.8-3.4-1.4-4.6-1.4C125.1,35.2,125,35.4,126.3,35.7z"/>
		<path d="M97.5,37c-0.3,0.6,0.1,0.7,0.9,0.4c1.8-0.7,2.1-1.4,0.7-1.4C98.5,36,97.8,36.4,97.5,37z"/>
		<path d="M122.1,46.4c1,0.9,6.9,3.6,6.9,3.2c0-0.6-5.5-3.6-6.6-3.6C122,46,121.9,46.2,122.1,46.4z"/>
		<path d="M147,47c0,0.6-0.6,0.8-1.2,0.4c-1-0.6-1-0.4,0,0.7c0.9,0.9,1.5,1,2.3,0.2s0.8-1.3,0-1.7C147.5,46.2,147,46.4,147,47z"/>
		<path d="M154,53.6c0,0.8,0.5,1.2,1,0.9c0.6-0.3,1-1,1-1.6c0-0.5-0.4-0.9-1-0.9C154.5,52,154,52.7,154,53.6z"/>
		<path d="M168.8,56.7c-0.3,0.4,0.3,2.4,1.3,4.3c1,1.9,1.8,3.1,1.9,2.6c0-0.5,0.7-0.3,1.5,0.4c1,0.8,1.5,0.9,1.5,0.2
			c0-0.6-0.7-1.5-1.7-2c-0.9-0.5-1.7-2-1.8-3.3C171.3,56.6,169.6,55.2,168.8,56.7z"/>
		<path d="M169.5,68c0.3,0.5,1.2,0.7,2,0.3c2.1-0.7,1.9-1.3-0.6-1.3C169.8,67,169.1,67.4,169.5,68z"/>
		<path d="M166.5,70c0.3,0.5,0.8,1,1.1,1c0.2,0,0.4-0.5,0.4-1c0-0.6-0.5-1-1.1-1C166.4,69,166.2,69.4,166.5,70z"/>
		<path d="M165.9,72.9c1.2,0.8,1.2,1.3-0.3,3.6c-2,3-2.8,7.5-1.5,7.5c0.5,0,0.9-0.9,0.9-2.1c0-1.1,0.7-2.7,1.5-3.5
			c2.1-2.2,2-6.4-0.2-6.4C164.8,72,164.8,72.2,165.9,72.9z"/>
		<path d="M115,76c-1.4,0.4-1.9,0.8-1.2,0.9c0.7,0.1,1.6,1.1,2.1,2.3c0.7,2.1,0.8,2,1.3-1c0.2-1.8,0.4-3.2,0.4-3.1
			C117.5,75.2,116.4,75.6,115,76z"/>
		<path d="M155.6,77.9c-1.2,0.5-1.5,1-0.9,1.4s1.6,0,2.3-0.8C158.4,76.8,158.3,76.8,155.6,77.9z"/>
		<path d="M168,77.9c0,0.6,0.5,1.3,1,1.6c0.6,0.3,1-0.1,1-0.9c0-0.9-0.4-1.6-1-1.6C168.5,77,168,77.4,168,77.9z"/>
		<path d="M154,82.1c0,0.4-0.9,0.9-2,1.2c-2.5,0.6-2.6,2.3-0.2,2.9c2.2,0.6,6.2-0.8,6.2-2.2c0-0.5,0.6-1,1.4-1
			c0.8,0,1.7-0.3,1.9-0.8c0.3-0.4-1.2-0.7-3.4-0.7C155.8,81.5,154,81.8,154,82.1z M157,84c0,0.5-1.5,0.9-3.2,0.9l-3.3-0.1l3-0.8
			c1.7-0.4,3.1-0.8,3.3-0.9C156.9,83.1,157,83.4,157,84z"/>
		<path d="M159.8,85.7c0.6,0.2,1.8,0.2,2.5,0c0.6-0.3,0.1-0.5-1.3-0.5C159.6,85.2,159.1,85.4,159.8,85.7z"/>
		<path d="M145,86.8c0,0.4,0.9,1.3,2,2c2.3,1.4,2.6,0.7,0.6-1.4C146,85.9,145,85.6,145,86.8z"/>
		<path d="M165.6,87.5c-1.1,0.8-1.5,1.5-0.9,1.5s1.6-0.7,2.3-1.5C168.6,85.6,168.1,85.6,165.6,87.5z"/>
		<path d="M150,90.1c0,0.6,0.9,0.8,2,0.4s2-0.2,2,0.4c0,1.4,2.7,1.4,3.5,0.1c0.3-0.5,0-0.7-0.8-0.4c-0.8,0.3-1.8,0.1-2.2-0.5
			C153.7,88.7,150,88.7,150,90.1z"/>
		<path d="M153.6,149.3c-0.5,1.5-0.6,3.1-0.2,3.4c1.1,1.1,1.8-0.5,1.4-3.4l-0.4-2.8L153.6,149.3z"/>
		<path d="M133.1,152.6c0,1.1,0.3,1.4,0.6,0.6c0.3-0.7,0.2-1.6-0.1-1.9C133.3,150.9,133,151.5,133.1,152.6z"/>
		<path d="M161.3,159.7c0.4,0.3,0.5,0.9,0.1,1.4c-0.7,1.2,0.7,1.1,2.6-0.1c0.9-0.6,1-1,0.3-1c-0.6,0-1.7-0.2-2.5-0.3
			C161.1,159.5,160.8,159.5,161.3,159.7z"/>
		<path d="M134.8,163.4c-9.3,2.9-13.4,5.6-6.7,4.2c1.7-0.3,4.2-0.6,5.5-0.6c1.7,0,2.2-0.4,1.8-1.5c-0.4-0.9,0-1.5,0.9-1.5
			c0.8,0,3-0.3,4.8-0.6c3.2-0.5,3.3-0.5,1.5,1c-2,1.6-2,1.6,0,1.7c1,0,2.9,0.2,4.1,0.5c1.2,0.2,3.6-0.3,5.5-1.1
			c2-0.9,2.5-1.5,1.3-1.4c-1.1,0.1-2.8-0.1-3.7-0.6c-1-0.4-2.5-0.4-3.4-0.1c-0.8,0.3-1.2,0.2-0.9-0.4s0-1-0.7-1
			c-0.9,0-0.9-0.3,0.2-1C147.4,159.5,145.2,160,134.8,163.4z M149.7,164.6c-0.3,0.3-1.2,0.4-1.9,0.1c-0.8-0.3-0.5-0.6,0.6-0.6
			C149.5,164,150.1,164.3,149.7,164.6z"/>
		<path d="M64.2,164.2c-1.6,1.6-1.5,2.8,0.1,2.8c0.7,0,1.3-0.9,1.3-2s-0.1-2-0.1-2C65.4,163,64.9,163.5,64.2,164.2z"/>
		<path d="M94.8,165.7c1.2,0.2,3.2,0.2,4.5,0c1.2-0.2,0.2-0.4-2.3-0.4S93.5,165.5,94.8,165.7z"/>
		<path d="M84.8,166.7c1.2,0.2,3.2,0.2,4.5,0c1.2-0.2,0.2-0.4-2.3-0.4S83.5,166.5,84.8,166.7z"/>
		<path d="M73.8,167.7c1.2,0.2,3.2,0.2,4.5,0c1.2-0.2,0.2-0.4-2.3-0.4S72.5,167.5,73.8,167.7z"/>
		<path d="M121,168c-2.3,0.7-2.3,0.8-0.3,0.9c1.2,0.1,2.5-0.4,2.8-0.9c0.3-0.6,0.5-1,0.3-0.9C123.6,167.2,122.4,167.6,121,168z"/>
		<path d="M136.2,168.3c-0.8,1-0.6,1.3,1.1,1.5c3.3,0.3,6.9-0.7,6.2-1.8c-0.9-1.5-3.7-1.2-2.9,0.2c0.6,1,0.4,1-0.7,0
			C138.2,166.7,137.5,166.7,136.2,168.3z"/>
		<path d="M65.8,168.7c1.2,0.2,3,0.2,4,0c0.9-0.3-0.1-0.5-2.3-0.4C65.3,168.3,64.5,168.5,65.8,168.7z"/>
		<path d="M60.8,173.7c0.6,0.2,1.8,0.2,2.5,0c0.6-0.3,0.1-0.5-1.3-0.5C60.6,173.2,60.1,173.4,60.8,173.7z"/>
		<path d="M106.5,178.1c-1.8,0.7-1.8,0.8,0.5,0.9c1.4,0.1,5.1,0.5,8.3,0.9c3.2,0.4,6,0.4,6.3-0.1c0.3-0.4,0.2-0.8-0.3-0.9
			c-2.1-0.2-5-0.8-7-1.4c-1.5-0.5-2.3-0.3-2.3,0.4c0,0.8-0.6,0.9-1.7,0.3C109.3,177.7,107.6,177.6,106.5,178.1z"/>
	</g>
	<g id="Layer_5">
		<ellipse transform="matrix(0.1668 -0.986 0.986 0.1668 -123.0472 209.2257)" cx="62.3" cy="177.4" rx="1.4" ry="9.9"/>
	</g>
	<g id="Layer_6">
		<path class="st1" d="M112.5,0.1C50.7,0.1,0.6,50.2,0.6,112.1S50.7,224,112.5,224s111.9-50.1,111.9-111.9S174.3,0.1,112.5,0.1z
			 M112.5,197c-46.9,0-84.9-38-84.9-84.9s38-84.9,84.9-84.9s84.9,38,84.9,84.9S159.4,197,112.5,197z"/>
	</g>
	<g class="st2">
		<path id="SVGID_x5F_1_x5F_" class="st3" d="M201.8,117.6c-3.5,49.4-46.3,86.7-95.7,83.2s-86.7-46.3-83.2-95.7s46.3-86.7,95.7-83.2
			S205.3,68.2,201.8,117.6z"/>
		<text transform="matrix(1 0 0 1 60.1305 38.4268)" class="st4 st5 st6"> </text>
		<text transform="matrix(1 0 0 1 62.8126 36.4305)" class="st7 st8 st9">L</text>
		<text transform="matrix(1 0 0 1 71.1824 31.1047)" class="st7 st8 st9">O</text>
		<text transform="matrix(1 0 0 1 88.8409 24.5782)" class="st7 st8 st9">S</text>
		<text transform="matrix(1 0 0 1 100.2872 22.4098)" class="st7 st8 st9"> </text>
		<text transform="matrix(1 0 0 1 106.5284 21.47)" class="st7 st8 st9">A</text>
		<text transform="matrix(1 0 0 1 123.138 21.9526)" class="st7 st8 st9">N</text>
		<text transform="matrix(1 0 0 1 139.428 25.3429)" class="st7 st8 st9">G</text>
		<text transform="matrix(1 0 0 1 156.5718 33.1208)" class="st7 st8 st9">E</text>
		<text transform="matrix(1 0 0 1 166.2939 39.5544)" class="st7 st8 st9">L</text>
		<text transform="matrix(1 0 0 1 173.8807 45.87)" class="st7 st8 st9">E</text>
		<text transform="matrix(1 0 0 1 181.8489 54.3893)" class="st7 st8 st9">S</text>
		<text transform="matrix(1 0 0 1 188.5359 63.9288)" class="st7 st8 st9"> </text>
		<text transform="matrix(1 0 0 1 191.7419 69.3252)" class="st7 st8 st9">L</text>
		<text transform="matrix(1 0 0 1 195.8059 78.3053)" class="st7 st8 st9">I</text>
		<text transform="matrix(1 0 0 1 198.1956 84.1404)" class="st7 st8 st9">V</text>
		<text transform="matrix(1 0 0 1 201.4542 99.4985)" class="st7 st8 st9">E</text>
		<text transform="matrix(1 0 0 1 202.0817 111.1313)" class="st7 st8 st9"> </text>
		<text class="st4 st5 st6"> </text>
	</g>
	<g id="Layer_4" class="st2">
		<path id="SVGID_x5F_2_x5F_" class="st3" d="M216.2,138.7c-15.1,57.5-74,91.8-131.5,76.7S-7.1,141.4,8,83.9S82-7.9,139.5,7.2
			S231.3,81.2,216.2,138.7z"/>
		<text transform="matrix(1 0 0 1 9.3896 79.0208)" class="st4 st5 st6"> </text>
		<text transform="matrix(1 0 0 1 10.266 75.788)" class="st7 st8 st10">R</text>
		<text transform="matrix(1 0 0 1 15.1182 63.7941)" class="st7 st8 st10">A</text>
		<text transform="matrix(1 0 0 1 23.6871 49.7438)" class="st7 st8 st10">I</text>
		<text transform="matrix(1 0 0 1 27.3428 44.696)" class="st7 st8 st10">L</text>
		<text transform="matrix(1 0 0 1 33.6895 37.2229)" class="st7 st8 st10">R</text>
		<text transform="matrix(1 0 0 1 42.9981 28.219)" class="st7 st8 st10">O</text>
		<text transform="matrix(1 0 0 1 58.4306 17.629)" class="st7 st8 st10">A</text>
		<text transform="matrix(1 0 0 1 73.3313 10.576)" class="st7 st8 st10">D</text>
		<text transform="matrix(1 0 0 1 88.2994 6.2606)" class="st7 st8 st10"> </text>
		<text transform="matrix(1 0 0 1 94.367 4.636)" class="st7 st8 st10">M</text>
		<text transform="matrix(1 0 0 1 114.3717 3.4277)" class="st7 st8 st10">U</text>
		<text transform="matrix(1 0 0 1 128.5623 4.762)" class="st7 st8 st10">S</text>
		<text transform="matrix(1 0 0 1 139.8951 7.1458)" class="st7 st8 st10">E</text>
		<text transform="matrix(1 0 0 1 150.9468 10.6388)" class="st7 st8 st10">U</text>
		<text transform="matrix(1 0 0 1 164.0215 16.429)" class="st7 st8 st10">M</text>
		<text transform="matrix(1 0 0 1 180.3546 27.996)" class="st4 st5 st6"> </text>
		<text class="st4 st5 st6"> </text>
	</g>
</g>
<g id="Layer_2" class="st2">
	<path id="SVGID_x5F_1_x5F__1_" class="st3" d="M205,112.1c0,51.1-41.4,92.5-92.5,92.5S20,163.1,20,112.1s41.4-92.5,92.5-92.5
		S205,61,205,112.1z"/>
	<text class="st4">	<textPath  xlink:href="#SVGID_x5F_1_x5F__1_" startOffset="65.8924%">
<tspan  class="st8" style="font-size:22.5px;">LOS ANGELES LIVE STEAMERS</tspan>	</textPath>
</text>
</g>
<g id="Layer_3">
	<g>
		<path class="st0" d="M33.8,155.8l1.8,2.8c1,1.5,1.5,2.7,1.6,3.6c0.1,0.8,0,1.6-0.4,2.4c-0.4,0.8-1,1.5-1.9,2
			c-0.9,0.6-1.8,0.8-2.7,0.8c-0.9-0.1-1.8-0.4-2.6-1.1l-4.2,7.2l-1.8-2.9l4-6.9l-0.2-0.2l-5.9,3.7l-1.7-2.7L33.8,155.8z M30,161.9
			l0.5,0.8c0.5,0.8,1,1.4,1.4,1.5c0.4,0.2,0.9,0.1,1.4-0.2c0.3-0.2,0.5-0.4,0.7-0.7c0.1-0.3,0.2-0.6,0.1-0.9
			c-0.1-0.3-0.3-0.8-0.8-1.6l-0.5-0.7L30,161.9z"/>
		<path class="st0" d="M43.5,169.7l2.1,2.4l-8.4,15.6l-2.1-2.5l1.7-3.2l-4.4-5.1l-3.5,1.2l-2.1-2.5L43.5,169.7z M41.2,173.8l-5.7,2
			l2.9,3.3L41.2,173.8z"/>
		<path class="st0" d="M50.8,177.5l2.3,2.1L42,191.8l-2.3-2.1L50.8,177.5z"/>
		<path class="st0" d="M55.3,181.5l2.5,1.9l-8.2,10.7l3.6,2.8l-1.8,2.4l-6.1-4.7L55.3,181.5z"/>
		<path class="st0" d="M62.8,187.1l2.9,1.7c1.6,0.9,2.6,1.7,3.1,2.4s0.8,1.5,0.8,2.3c0,0.9-0.2,1.8-0.8,2.7
			c-0.6,0.9-1.2,1.6-2.1,1.9c-0.8,0.4-1.8,0.4-2.9,0.2l-0.4,8.3l-3-1.7l0.4-7.9l-0.2-0.1l-3.6,6l-2.7-1.6L62.8,187.1z M62.2,194.3
			l0.8,0.5c0.9,0.5,1.5,0.7,2,0.7c0.5,0,0.8-0.3,1.2-0.8c0.2-0.3,0.3-0.6,0.2-1c0-0.3-0.1-0.6-0.4-0.9c-0.2-0.3-0.7-0.6-1.4-1
			l-0.7-0.4L62.2,194.3z"/>
		<path class="st0" d="M80.2,195.5c2.2,0.8,3.8,2.3,4.8,4.5c1,2.2,1.1,4.4,0.2,6.7c-0.8,2.3-2.3,3.9-4.5,4.9c-2.1,1-4.3,1.1-6.5,0.3
			c-2.3-0.9-4-2.4-4.9-4.5c-0.9-2.2-1-4.4-0.2-6.6c0.5-1.5,1.4-2.7,2.6-3.7c1.2-1,2.5-1.6,4-1.9C77.2,194.8,78.7,195,80.2,195.5z
			 M79.1,198.4c-1.4-0.5-2.8-0.5-4.2,0.2c-1.3,0.6-2.3,1.7-2.9,3.3c-0.6,1.7-0.5,3.3,0.3,4.7c0.7,1.1,1.6,1.9,2.9,2.4
			c1.4,0.5,2.8,0.4,4.1-0.2c1.4-0.6,2.3-1.7,2.9-3.2c0.5-1.5,0.5-2.9-0.1-4.3C81.5,199.9,80.5,198.9,79.1,198.4z"/>
		<path class="st0" d="M94.6,200.2l3.1,0.6l3.2,17.4l-3.2-0.6l-0.6-3.6l-6.6-1.2l-1.9,3.1l-3.2-0.6L94.6,200.2z M95.4,204.8
			l-3.2,5.2l4.3,0.8L95.4,204.8z"/>
		<path class="st0" d="M105.1,201.9l3.7,0.1c2.4,0,4.2,0.4,5.3,1c1.2,0.6,2.1,1.6,2.8,2.9s1.1,2.9,1.1,4.7c0,1.3-0.2,2.4-0.7,3.5
			c-0.4,1.1-1,1.9-1.8,2.6c-0.8,0.7-1.6,1.2-2.4,1.4c-0.9,0.3-2.4,0.4-4.5,0.3l-3.8-0.1L105.1,201.9z M108.1,205l-0.1,10.4l1.5,0
			c1.4,0,2.5-0.1,3.1-0.4c0.7-0.3,1.2-0.9,1.6-1.6c0.4-0.8,0.6-1.7,0.7-2.9c0-1.8-0.4-3.1-1.4-4.1c-0.9-0.9-2.3-1.3-4.2-1.4
			L108.1,205z"/>
		<path class="st0" d="M127.1,201l3-0.7l6.5,10.3l1-12.1l3-0.7l6.6,15.4l-3,0.7l-4.2-9.7l-0.9,11l-2.7,0.7l-5.9-9.3l0.7,10.6l-3,0.7
			L127.1,201z"/>
		<path class="st0" d="M144,196.4l2.9-1.3l4.3,9.8c0.4,0.8,0.7,1.4,1,1.7c0.3,0.3,0.7,0.5,1.1,0.5s0.9,0,1.4-0.2
			c0.5-0.2,0.9-0.5,1.2-0.9c0.3-0.4,0.4-0.8,0.4-1.2c0-0.4-0.3-1.1-0.7-2.1l-4.2-9.4l2.9-1.3l4,9c0.7,1.5,1.1,2.6,1.2,3.3
			c0.1,0.7,0,1.4-0.2,2.1c-0.2,0.8-0.6,1.4-1.1,2c-0.5,0.5-1.2,1-2,1.4c-1.1,0.5-2.2,0.7-3.2,0.5c-1-0.1-1.9-0.5-2.6-1.1
			c-0.7-0.6-1.4-1.8-2.2-3.6L144,196.4z"/>
		<path class="st0" d="M164.9,188l-0.9,3c-1.3-0.5-2.3-0.6-3-0.1c-0.3,0.2-0.6,0.5-0.7,0.8c-0.1,0.3-0.1,0.6,0.1,0.8
			c0.1,0.2,0.4,0.4,0.7,0.5c0.4,0.1,1.4,0.3,3.1,0.6c1.5,0.2,2.5,0.4,2.9,0.5c0.9,0.2,1.6,0.5,2.1,0.9c0.5,0.4,1,0.8,1.4,1.4
			c0.7,1.2,0.9,2.4,0.6,3.6s-1.1,2.3-2.4,3.1c-1,0.6-2,0.9-3.1,0.9c-1,0-2.2-0.4-3.3-1.1l1.4-2.7c1.4,0.8,2.6,1,3.5,0.4
			c0.5-0.3,0.8-0.7,0.9-1.1c0.1-0.5,0.1-0.9-0.1-1.2c-0.2-0.3-0.5-0.6-0.9-0.7c-0.4-0.2-1.3-0.3-2.5-0.5c-2.3-0.3-3.9-0.7-4.8-1.1
			c-0.9-0.4-1.5-0.9-1.9-1.6c-0.6-1-0.8-2-0.4-3.2c0.3-1.2,1-2.1,2.1-2.7c0.7-0.4,1.5-0.7,2.3-0.8
			C162.6,187.4,163.7,187.6,164.9,188z"/>
		<path class="st0" d="M165.6,184.7l7-5.6l1.9,2.4l-4.6,3.7l1.9,2.3l4.6-3.7l1.9,2.4l-4.6,3.7l2.7,3.4l4.6-3.7l1.9,2.4l-7,5.6
			L165.6,184.7z"/>
		<path class="st0" d="M174,177.9l2.2-2.3l7.8,7.3c0.7,0.6,1.2,1,1.6,1.2c0.4,0.1,0.8,0.2,1.2,0c0.4-0.1,0.8-0.4,1.2-0.7
			c0.4-0.4,0.6-0.8,0.7-1.3c0.1-0.5,0-0.9-0.1-1.3c-0.2-0.4-0.7-1-1.5-1.7l-7.5-7.1l2.2-2.3l7.2,6.8c1.2,1.1,2,2,2.3,2.6
			c0.3,0.6,0.5,1.3,0.6,2.1c0.1,0.8,0,1.5-0.3,2.2c-0.3,0.7-0.7,1.4-1.3,2c-0.8,0.9-1.7,1.4-2.8,1.7c-1,0.3-1.9,0.3-2.8,0
			c-0.9-0.3-2-1.1-3.4-2.5L174,177.9z"/>
		<path class="st0" d="M184.1,166.9l1.7-2.6l11.7,3.1l-7.6-9.5l1.7-2.6L207,162l-1.7,2.5l-9.7-4.2l6.8,8.6l-1.5,2.3l-10.6-2.8
			l7.8,7.2l-1.7,2.6L184.1,166.9z"/>
	</g>
</g>
<g id="Layer_4_1_">
	<g>
		<path class="st0" d="M6,112.8l0.1-3.1l13.5,0.3l0.1-4.6l3,0.1l-0.2,7.7L6,112.8z"/>
		<path class="st0" d="M7.3,93.6c0.4-2.3,1.6-4.1,3.5-5.5c2-1.4,4.1-1.8,6.5-1.4c2.4,0.4,4.2,1.6,5.6,3.5c1.4,1.9,1.8,4,1.4,6.4
			c-0.4,2.4-1.6,4.3-3.6,5.6c-2,1.3-4.1,1.8-6.4,1.4c-1.6-0.3-2.9-0.9-4.1-1.9c-1.2-1-2-2.2-2.6-3.6C7.1,96.6,7,95.1,7.3,93.6z
			 M10.3,94.2c-0.3,1.5,0,2.9,0.9,4.1c0.9,1.2,2.1,2,3.7,2.2c1.8,0.3,3.3-0.1,4.6-1.2c1-0.9,1.6-1.9,1.8-3.2c0.3-1.5-0.1-2.8-0.9-4
			c-0.9-1.2-2.1-2-3.7-2.2c-1.5-0.3-3,0-4.2,0.9C11.3,91.5,10.5,92.7,10.3,94.2z"/>
		<path class="st0" d="M15.5,73.7l1.2,2.9c-1.3,0.4-2.2,1-2.4,1.8c-0.1,0.4-0.1,0.7,0,1.1c0.1,0.3,0.3,0.5,0.6,0.6
			c0.3,0.1,0.5,0.1,0.8,0c0.4-0.1,1.3-0.6,2.8-1.5c1.3-0.8,2.2-1.3,2.5-1.4c0.8-0.4,1.5-0.6,2.2-0.7c0.6-0.1,1.3,0,2,0.3
			c1.3,0.4,2.2,1.2,2.7,2.4c0.5,1.2,0.6,2.5,0.1,3.9c-0.4,1.1-1,2-1.8,2.6c-0.8,0.6-1.9,1-3.3,1.2l-0.6-3c1.6-0.3,2.6-0.9,3-1.9
			c0.2-0.5,0.2-1,0-1.4c-0.2-0.4-0.5-0.7-0.9-0.9c-0.4-0.1-0.8-0.1-1.2,0c-0.4,0.1-1.2,0.5-2.2,1.2c-2,1.2-3.4,2-4.3,2.2
			c-0.9,0.2-1.8,0.2-2.5,0c-1.1-0.4-1.9-1.1-2.4-2.2c-0.5-1.1-0.5-2.2-0.1-3.5c0.3-0.8,0.7-1.5,1.3-2S14.3,74.2,15.5,73.7z"/>
		<path class="st0" d="M20.7,58.1l1.7-2.7l17.4,3.2l-1.7,2.8l-3.6-0.7L31,66.5l2.2,2.9l-1.7,2.8L20.7,58.1z M25.3,59l3.7,4.8
			l2.3-3.8L25.3,59z"/>
		<path class="st0" d="M28,46.9l2-2.3l12.8,1.9l-8.2-7.2l2.1-2.4l12.4,10.9l-2,2.3l-12.8-1.8l8.1,7.1l-2.1,2.4L28,46.9z"/>
		<path class="st0" d="M54.2,25.9L53.8,29c-2-0.3-3.8,0.1-5.2,1.3c-1.3,1-2,2.3-2.2,3.8c-0.2,1.5,0.2,2.9,1.1,4.1
			c1,1.3,2.3,2,3.9,2.1s3-0.3,4.3-1.3c0.9-0.7,1.4-1.4,1.7-2.2c0.3-0.8,0.3-1.8,0.1-2.8l-3.8,3l-1.8-2.3l6.5-5.1l0.4,0.5
			c0.9,1.1,1.5,2.4,1.7,3.9c0.2,1.5,0.1,2.9-0.4,4.1c-0.5,1.3-1.4,2.4-2.7,3.4c-1.3,1.1-2.8,1.7-4.3,2c-1.5,0.2-3,0.1-4.5-0.5
			c-1.5-0.6-2.7-1.5-3.7-2.8c-1.4-1.7-2-3.7-1.8-5.8c0.2-2.6,1.3-4.7,3.5-6.4c1.1-0.9,2.3-1.5,3.7-1.9
			C51.4,25.7,52.7,25.7,54.2,25.9z"/>
		<path class="st0" d="M57.2,21l7.9-4.4l1.5,2.7l-5.2,2.9l1.5,2.6l5.2-2.9l1.5,2.6l-5.2,2.9l2.1,3.8l5.2-2.9l1.5,2.7l-7.9,4.4
			L57.2,21z"/>
		<path class="st0" d="M68.6,15l2.9-1.2l5.2,12.5l4.2-1.8l1.2,2.8l-7.1,3L68.6,15z"/>
		<path class="st0" d="M78.9,11l8.7-2.5l0.9,3L82.8,13l0.8,2.9l5.7-1.6l0.8,2.9l-5.7,1.6l1.2,4.2l5.7-1.6l0.9,3l-8.7,2.5L78.9,11z"
			/>
		<path class="st0" d="M100.3,8.5l-2,2.4c-1-1-1.9-1.4-2.7-1.3c-0.4,0.1-0.7,0.2-0.9,0.5c-0.2,0.3-0.3,0.5-0.3,0.8
			c0,0.3,0.2,0.5,0.4,0.7c0.3,0.3,1.2,0.9,2.6,1.7c1.3,0.8,2.2,1.3,2.5,1.5c0.7,0.5,1.3,1.1,1.6,1.6c0.4,0.5,0.6,1.2,0.7,1.8
			c0.2,1.3-0.1,2.5-0.9,3.5c-0.8,1-1.9,1.7-3.4,1.9c-1.2,0.2-2.2,0.1-3.2-0.4S93,22.2,92.1,21l2.4-2c1,1.3,2,1.9,3.1,1.7
			c0.5-0.1,1-0.3,1.3-0.7c0.3-0.4,0.4-0.8,0.4-1.2c-0.1-0.4-0.3-0.7-0.6-1c-0.3-0.3-1-0.8-2.1-1.4c-2-1.2-3.3-2.1-4-2.8
			s-1-1.4-1.2-2.2c-0.2-1.1,0.1-2.2,0.8-3.1s1.7-1.5,3-1.7c0.8-0.1,1.6-0.1,2.4,0.2S99.3,7.6,100.3,8.5z"/>
		<path class="st0" d="M111.2,5.6l3.1,0.1l-0.2,13.5l4.6,0.1l-0.1,3l-7.7-0.1L111.2,5.6z"/>
		<path class="st0" d="M121.7,6l3.1,0.3l-1.7,16.4l-3.1-0.3L121.7,6z"/>
		<path class="st0" d="M128.1,6.5l3.2,0.7l1.6,12.4L139.4,9l3.2,0.7l-9.3,14.9l-3-0.6L128.1,6.5z"/>
		<path class="st0" d="M146.1,11l8.4,3.2l-1.1,2.9l-5.5-2.1l-1,2.8l5.5,2.1l-1.1,2.8l-5.5-2.1l-1.5,4.1l5.5,2.1l-1.1,2.9l-8.4-3.2
			L146.1,11z"/>
		<path class="st0" d="M170.6,25.4l-3.1,0.5c-0.1-1.4-0.5-2.3-1.2-2.8c-0.4-0.2-0.7-0.3-1-0.2s-0.6,0.2-0.7,0.4
			c-0.1,0.2-0.2,0.5-0.2,0.8c0,0.4,0.3,1.4,0.9,3c0.5,1.5,0.8,2.4,0.9,2.8c0.2,0.9,0.3,1.6,0.2,2.3c-0.1,0.6-0.3,1.3-0.7,1.9
			c-0.7,1.2-1.7,1.9-2.9,2.1c-1.3,0.3-2.5,0-3.8-0.8c-1-0.6-1.7-1.4-2.2-2.3c-0.4-0.9-0.6-2.1-0.5-3.5l3.1,0
			c-0.1,1.7,0.3,2.8,1.2,3.3c0.5,0.3,0.9,0.4,1.4,0.3c0.5-0.1,0.8-0.3,1-0.6c0.2-0.3,0.3-0.7,0.2-1.2c0-0.5-0.3-1.3-0.7-2.4
			c-0.8-2.2-1.2-3.8-1.2-4.7s0.2-1.8,0.6-2.4c0.6-1,1.5-1.6,2.7-1.8c1.2-0.2,2.3,0,3.4,0.6c0.7,0.4,1.3,1,1.7,1.7
			C170,23.1,170.4,24.1,170.6,25.4z"/>
		<path class="st0" d="M173.9,24.9l7.2,5.6l-1.9,2.5l-2.4-1.8l-8.2,10.6l-2.5-2l8.2-10.6l-2.3-1.8L173.9,24.9z"/>
		<path class="st0" d="M183.4,32.6l6.5,6.3l-2.1,2.2l-4.2-4.1l-2.1,2.2l4.2,4.1l-2.1,2.2l-4.2-4.1l-3,3.1l4.2,4.1l-2.1,2.2l-6.5-6.3
			L183.4,32.6z"/>
		<path class="st0" d="M195.8,45.8l1.9,2.5l-9.2,15.1l-2-2.6l1.9-3.1l-4.1-5.3l-3.5,1l-2-2.6L195.8,45.8z M193.3,49.8l-5.8,1.7
			l2.7,3.5L193.3,49.8z"/>
		<path class="st0" d="M204.6,58.2L206,61l-8.6,8.6l12-1.7l1.4,2.7l-13.5,9.9l-1.4-2.7l8.5-6.3L193.5,73l-1.2-2.5l7.8-7.8l-10.1,3.1
			l-1.4-2.7L204.6,58.2z"/>
		<path class="st0" d="M213.1,76.9l2.6,8.6l-2.9,0.9l-1.7-5.6l-2.9,0.9l1.7,5.6l-2.9,0.9l-1.7-5.6l-4.2,1.3l1.7,5.6l-3,0.9l-2.6-8.6
			L213.1,76.9z"/>
		<path class="st0" d="M216.6,89.6l0.6,3.3c0.3,1.8,0.4,3.1,0.2,3.9c-0.2,0.8-0.6,1.5-1.3,2.1c-0.7,0.6-1.5,1-2.5,1.1
			c-1.1,0.2-2,0.1-2.8-0.3c-0.8-0.4-1.5-1.1-2-2l-6.6,5.1l-0.6-3.4l6.3-4.8l0-0.3l-6.9,1.2l-0.5-3.1L216.6,89.6z M210.8,93.8l0.2,1
			c0.2,1,0.4,1.6,0.7,2s0.8,0.4,1.4,0.3c0.4-0.1,0.6-0.2,0.9-0.4c0.2-0.2,0.4-0.5,0.4-0.8c0.1-0.3,0-0.9-0.1-1.7l-0.1-0.8
			L210.8,93.8z"/>
		<path class="st0" d="M216.8,112.4l-2.1-2.2c1.1-0.9,1.6-1.7,1.6-2.6c0-0.4-0.1-0.7-0.4-1c-0.2-0.3-0.5-0.4-0.8-0.4
			c-0.3,0-0.5,0.1-0.8,0.3c-0.3,0.3-1,1.1-2,2.4c-1,1.2-1.6,2-1.8,2.3c-0.6,0.7-1.2,1.1-1.8,1.4c-0.6,0.3-1.2,0.4-1.9,0.5
			c-1.4,0.1-2.5-0.4-3.4-1.3c-0.9-0.9-1.4-2.1-1.5-3.6c0-1.2,0.2-2.2,0.7-3.1c0.5-0.9,1.4-1.7,2.6-2.4l1.7,2.6
			c-1.4,0.9-2.1,1.8-2.1,2.8c0,0.5,0.2,1,0.5,1.3s0.7,0.5,1.1,0.5c0.4,0,0.7-0.2,1.1-0.5c0.4-0.3,0.9-0.9,1.6-1.9
			c1.4-1.9,2.5-3.1,3.3-3.6c0.8-0.6,1.6-0.9,2.4-0.9c1.1,0,2.1,0.4,3,1.2c0.9,0.8,1.3,1.9,1.4,3.2c0,0.8-0.1,1.6-0.5,2.4
			C218.4,110.6,217.8,111.5,216.8,112.4z"/>
	</g>
</g>
</svg>
